<svg width="348" height="120" viewBox="0 0 348 120" fill="none" xmlns="http://www.w3.org/2000/svg">
<g filter="url(#filter0_d_1916_2171)">
<rect x="3" y="1" width="342" height="106" rx="10" fill="#A58BFF" shape-rendering="crispEdges"/>
<mask id="path-2-outside-1_1916_2171" maskUnits="userSpaceOnUse" x="21" y="7" width="158" height="16" fill="black">
<rect fill="white" x="21" y="7" width="158" height="16"/>
<path d="M40.1633 8.65075L36.4339 22H33.2783L30.7729 12.4949L28.1528 22L25.0163 22.0191L21.4208 8.65075H24.2895L26.6419 19.0165L29.3576 8.65075H32.3411L34.9039 18.9591L37.2754 8.65075H40.1633ZM51.8565 16.4729C51.8565 16.8554 51.831 17.1996 51.78 17.5056H44.0344C44.0982 18.2706 44.3659 18.8699 44.8377 19.3034C45.3094 19.7369 45.8895 19.9536 46.578 19.9536C47.5725 19.9536 48.2802 19.5265 48.7009 18.6722H51.5888C51.2828 19.6922 50.6963 20.5337 49.8293 21.1967C48.9623 21.847 47.8977 22.1721 46.6354 22.1721C45.6154 22.1721 44.6974 21.949 43.8814 21.5027C43.0782 21.0437 42.447 20.3999 41.988 19.5711C41.5418 18.7424 41.3187 17.7861 41.3187 16.7024C41.3187 15.6059 41.5418 14.6432 41.988 13.8145C42.4343 12.9857 43.059 12.3482 43.8623 11.902C44.6655 11.4557 45.5899 11.2326 46.6354 11.2326C47.6427 11.2326 48.5415 11.4494 49.332 11.8829C50.1353 12.3164 50.7537 12.9347 51.1872 13.738C51.6334 14.5285 51.8565 15.4401 51.8565 16.4729ZM49.0834 15.7079C49.0707 15.0194 48.822 14.4711 48.3375 14.0631C47.853 13.6424 47.2602 13.432 46.5589 13.432C45.8959 13.432 45.3349 13.636 44.8759 14.044C44.4297 14.4392 44.1555 14.9939 44.0535 15.7079H49.0834ZM56.584 7.8475V22H53.9065V7.8475H56.584ZM58.6365 16.7024C58.6365 15.6059 58.8596 14.6496 59.3059 13.8336C59.7521 13.0049 60.3705 12.3674 61.161 11.9211C61.9515 11.4621 62.8568 11.2326 63.8768 11.2326C65.19 11.2326 66.2738 11.5641 67.128 12.2271C67.995 12.8774 68.5751 13.7954 68.8684 14.9811H65.9805C65.8275 14.5221 65.5661 14.1651 65.1964 13.9101C64.8394 13.6424 64.3931 13.5085 63.8576 13.5085C63.0926 13.5085 62.487 13.789 62.0408 14.35C61.5945 14.8982 61.3714 15.6824 61.3714 16.7024C61.3714 17.7096 61.5945 18.4937 62.0408 19.0547C62.487 19.603 63.0926 19.8771 63.8576 19.8771C64.9414 19.8771 65.649 19.3926 65.9805 18.4236H68.8684C68.5751 19.5711 67.995 20.4827 67.128 21.1585C66.261 21.8342 65.1773 22.1721 63.8768 22.1721C62.8568 22.1721 61.9515 21.949 61.161 21.5027C60.3705 21.0437 59.7521 20.4062 59.3059 19.5902C58.8596 18.7615 58.6365 17.7989 58.6365 16.7024ZM75.6303 22.1721C74.6103 22.1721 73.6923 21.949 72.8763 21.5027C72.0603 21.0437 71.4164 20.3999 70.9446 19.5711C70.4856 18.7424 70.2561 17.7861 70.2561 16.7024C70.2561 15.6186 70.492 14.6624 70.9638 13.8336C71.4483 13.0049 72.1049 12.3674 72.9336 11.9211C73.7624 11.4621 74.6868 11.2326 75.7068 11.2326C76.7268 11.2326 77.6511 11.4621 78.4799 11.9211C79.3086 12.3674 79.9589 13.0049 80.4306 13.8336C80.9151 14.6624 81.1574 15.6186 81.1574 16.7024C81.1574 17.7861 80.9088 18.7424 80.4115 19.5711C79.927 20.3999 79.264 21.0437 78.4225 21.5027C77.5938 21.949 76.663 22.1721 75.6303 22.1721ZM75.6303 19.8389C76.1148 19.8389 76.5674 19.7241 76.9881 19.4946C77.4216 19.2524 77.7659 18.8954 78.0209 18.4236C78.2759 17.9519 78.4034 17.3781 78.4034 16.7024C78.4034 15.6951 78.1356 14.9237 77.6001 14.3882C77.0774 13.84 76.4335 13.5659 75.6685 13.5659C74.9035 13.5659 74.2596 13.84 73.7369 14.3882C73.2269 14.9237 72.9719 15.6951 72.9719 16.7024C72.9719 17.7096 73.2205 18.4874 73.7178 19.0356C74.2278 19.5711 74.8653 19.8389 75.6303 19.8389ZM96.3751 11.2517C97.6756 11.2517 98.7211 11.6534 99.5116 12.4566C100.315 13.2471 100.716 14.3564 100.716 15.7844V22H98.0389V16.1477C98.0389 15.319 97.8286 14.6879 97.4078 14.2544C96.9871 13.8081 96.4133 13.585 95.6866 13.585C94.9598 13.585 94.3797 13.8081 93.9462 14.2544C93.5254 14.6879 93.3151 15.319 93.3151 16.1477V22H90.6376V16.1477C90.6376 15.319 90.4272 14.6879 90.0064 14.2544C89.5857 13.8081 89.0119 13.585 88.2852 13.585C87.5457 13.585 86.9592 13.8081 86.5257 14.2544C86.1049 14.6879 85.8946 15.319 85.8946 16.1477V22H83.2171V11.4047H85.8946V12.6861C86.2388 12.2399 86.6787 11.8892 87.2142 11.6342C87.7624 11.3792 88.3617 11.2517 89.0119 11.2517C89.8407 11.2517 90.5802 11.4302 91.2304 11.7872C91.8807 12.1315 92.3843 12.6287 92.7413 13.279C93.0856 12.667 93.5828 12.1761 94.2331 11.8064C94.8961 11.4366 95.6101 11.2517 96.3751 11.2517ZM113.202 16.4729C113.202 16.8554 113.177 17.1996 113.126 17.5056H105.38C105.444 18.2706 105.712 18.8699 106.183 19.3034C106.655 19.7369 107.235 19.9536 107.924 19.9536C108.918 19.9536 109.626 19.5265 110.047 18.6722H112.934C112.628 19.6922 112.042 20.5337 111.175 21.1967C110.308 21.847 109.243 22.1721 107.981 22.1721C106.961 22.1721 106.043 21.949 105.227 21.5027C104.424 21.0437 103.793 20.3999 103.334 19.5711C102.887 18.7424 102.664 17.7861 102.664 16.7024C102.664 15.6059 102.887 14.6432 103.334 13.8145C103.78 12.9857 104.405 12.3482 105.208 11.902C106.011 11.4557 106.936 11.2326 107.981 11.2326C108.988 11.2326 109.887 11.4494 110.678 11.8829C111.481 12.3164 112.099 12.9347 112.533 13.738C112.979 14.5285 113.202 15.4401 113.202 16.4729ZM110.429 15.7079C110.416 15.0194 110.168 14.4711 109.683 14.0631C109.199 13.6424 108.606 13.432 107.905 13.432C107.242 13.432 106.681 13.636 106.222 14.044C105.775 14.4392 105.501 14.9939 105.399 15.7079H110.429ZM127.478 15.1532C128.231 15.2935 128.849 15.6696 129.334 16.2816C129.818 16.8936 130.06 17.5949 130.06 18.3854C130.06 19.0994 129.882 19.7305 129.525 20.2787C129.181 20.8142 128.677 21.235 128.014 21.541C127.351 21.847 126.567 22 125.662 22H119.905V8.65075H125.413C126.318 8.65075 127.096 8.79737 127.746 9.09062C128.409 9.38387 128.906 9.79187 129.238 10.3146C129.582 10.8374 129.754 11.4302 129.754 12.0932C129.754 12.871 129.544 13.5212 129.123 14.044C128.715 14.5667 128.167 14.9365 127.478 15.1532ZM122.582 14.1587H125.03C125.668 14.1587 126.159 14.0185 126.503 13.738C126.847 13.4447 127.019 13.0304 127.019 12.4949C127.019 11.9594 126.847 11.545 126.503 11.2517C126.159 10.9585 125.668 10.8119 125.03 10.8119H122.582V14.1587ZM125.279 19.8197C125.929 19.8197 126.433 19.6667 126.79 19.3607C127.16 19.0547 127.345 18.6212 127.345 18.0602C127.345 17.4865 127.153 17.0402 126.771 16.7215C126.388 16.39 125.872 16.2242 125.222 16.2242H122.582V19.8197H125.279ZM131.601 16.6641C131.601 15.5931 131.812 14.6432 132.232 13.8145C132.666 12.9857 133.246 12.3482 133.973 11.902C134.712 11.4557 135.535 11.2326 136.44 11.2326C137.23 11.2326 137.919 11.392 138.505 11.7107C139.105 12.0295 139.583 12.4311 139.94 12.9156V11.4047H142.636V22H139.94V20.4509C139.596 20.9481 139.117 21.3625 138.505 21.694C137.906 22.0128 137.211 22.1721 136.421 22.1721C135.528 22.1721 134.712 21.9426 133.973 21.4836C133.246 21.0246 132.666 20.3807 132.232 19.552C131.812 18.7105 131.601 17.7479 131.601 16.6641ZM139.94 16.7024C139.94 16.0521 139.812 15.4975 139.557 15.0385C139.302 14.5667 138.958 14.2097 138.525 13.9675C138.091 13.7125 137.626 13.585 137.128 13.585C136.631 13.585 136.172 13.7061 135.751 13.9484C135.331 14.1906 134.986 14.5476 134.719 15.0194C134.464 15.4784 134.336 16.0266 134.336 16.6641C134.336 17.3016 134.464 17.8626 134.719 18.3471C134.986 18.8189 135.331 19.1822 135.751 19.4372C136.185 19.6922 136.644 19.8197 137.128 19.8197C137.626 19.8197 138.091 19.6986 138.525 19.4564C138.958 19.2014 139.302 18.8444 139.557 18.3854C139.812 17.9136 139.94 17.3526 139.94 16.7024ZM144.659 16.7024C144.659 15.6059 144.882 14.6496 145.328 13.8336C145.774 13.0049 146.393 12.3674 147.183 11.9211C147.974 11.4621 148.879 11.2326 149.899 11.2326C151.212 11.2326 152.296 11.5641 153.15 12.2271C154.017 12.8774 154.597 13.7954 154.891 14.9811H152.003C151.85 14.5221 151.588 14.1651 151.219 13.9101C150.862 13.6424 150.415 13.5085 149.88 13.5085C149.115 13.5085 148.509 13.789 148.063 14.35C147.617 14.8982 147.394 15.6824 147.394 16.7024C147.394 17.7096 147.617 18.4937 148.063 19.0547C148.509 19.603 149.115 19.8771 149.88 19.8771C150.964 19.8771 151.671 19.3926 152.003 18.4236H154.891C154.597 19.5711 154.017 20.4827 153.15 21.1585C152.283 21.8342 151.199 22.1721 149.899 22.1721C148.879 22.1721 147.974 21.949 147.183 21.5027C146.393 21.0437 145.774 20.4062 145.328 19.5902C144.882 18.7615 144.659 17.7989 144.659 16.7024ZM163.221 22L159.625 17.4865V22H156.948V7.8475H159.625V15.8991L163.182 11.4047H166.663L161.997 16.7215L166.701 22H163.221ZM171.674 8.42125L171.368 17.6586H169.111L168.786 8.42125H171.674ZM170.297 22.1339C169.812 22.1339 169.411 21.9872 169.092 21.694C168.786 21.388 168.633 21.0119 168.633 20.5656C168.633 20.1194 168.786 19.7496 169.092 19.4564C169.411 19.1504 169.812 18.9974 170.297 18.9974C170.768 18.9974 171.157 19.1504 171.463 19.4564C171.769 19.7496 171.922 20.1194 171.922 20.5656C171.922 21.0119 171.769 21.388 171.463 21.694C171.157 21.9872 170.768 22.1339 170.297 22.1339ZM178.53 8.42125L178.224 17.6586H175.967L175.642 8.42125H178.53ZM177.153 22.1339C176.669 22.1339 176.267 21.9872 175.948 21.694C175.642 21.388 175.489 21.0119 175.489 20.5656C175.489 20.1194 175.642 19.7496 175.948 19.4564C176.267 19.1504 176.669 18.9974 177.153 18.9974C177.625 18.9974 178.014 19.1504 178.32 19.4564C178.626 19.7496 178.779 20.1194 178.779 20.5656C178.779 21.0119 178.626 21.388 178.32 21.694C178.014 21.9872 177.625 22.1339 177.153 22.1339Z"/>
</mask>
<path d="M40.1633 8.65075L36.4339 22H33.2783L30.7729 12.4949L28.1528 22L25.0163 22.0191L21.4208 8.65075H24.2895L26.6419 19.0165L29.3576 8.65075H32.3411L34.9039 18.9591L37.2754 8.65075H40.1633ZM51.8565 16.4729C51.8565 16.8554 51.831 17.1996 51.78 17.5056H44.0344C44.0982 18.2706 44.3659 18.8699 44.8377 19.3034C45.3094 19.7369 45.8895 19.9536 46.578 19.9536C47.5725 19.9536 48.2802 19.5265 48.7009 18.6722H51.5888C51.2828 19.6922 50.6963 20.5337 49.8293 21.1967C48.9623 21.847 47.8977 22.1721 46.6354 22.1721C45.6154 22.1721 44.6974 21.949 43.8814 21.5027C43.0782 21.0437 42.447 20.3999 41.988 19.5711C41.5418 18.7424 41.3187 17.7861 41.3187 16.7024C41.3187 15.6059 41.5418 14.6432 41.988 13.8145C42.4343 12.9857 43.059 12.3482 43.8623 11.902C44.6655 11.4557 45.5899 11.2326 46.6354 11.2326C47.6427 11.2326 48.5415 11.4494 49.332 11.8829C50.1353 12.3164 50.7537 12.9347 51.1872 13.738C51.6334 14.5285 51.8565 15.4401 51.8565 16.4729ZM49.0834 15.7079C49.0707 15.0194 48.822 14.4711 48.3375 14.0631C47.853 13.6424 47.2602 13.432 46.5589 13.432C45.8959 13.432 45.3349 13.636 44.8759 14.044C44.4297 14.4392 44.1555 14.9939 44.0535 15.7079H49.0834ZM56.584 7.8475V22H53.9065V7.8475H56.584ZM58.6365 16.7024C58.6365 15.6059 58.8596 14.6496 59.3059 13.8336C59.7521 13.0049 60.3705 12.3674 61.161 11.9211C61.9515 11.4621 62.8568 11.2326 63.8768 11.2326C65.19 11.2326 66.2738 11.5641 67.128 12.2271C67.995 12.8774 68.5751 13.7954 68.8684 14.9811H65.9805C65.8275 14.5221 65.5661 14.1651 65.1964 13.9101C64.8394 13.6424 64.3931 13.5085 63.8576 13.5085C63.0926 13.5085 62.487 13.789 62.0408 14.35C61.5945 14.8982 61.3714 15.6824 61.3714 16.7024C61.3714 17.7096 61.5945 18.4937 62.0408 19.0547C62.487 19.603 63.0926 19.8771 63.8576 19.8771C64.9414 19.8771 65.649 19.3926 65.9805 18.4236H68.8684C68.5751 19.5711 67.995 20.4827 67.128 21.1585C66.261 21.8342 65.1773 22.1721 63.8768 22.1721C62.8568 22.1721 61.9515 21.949 61.161 21.5027C60.3705 21.0437 59.7521 20.4062 59.3059 19.5902C58.8596 18.7615 58.6365 17.7989 58.6365 16.7024ZM75.6303 22.1721C74.6103 22.1721 73.6923 21.949 72.8763 21.5027C72.0603 21.0437 71.4164 20.3999 70.9446 19.5711C70.4856 18.7424 70.2561 17.7861 70.2561 16.7024C70.2561 15.6186 70.492 14.6624 70.9638 13.8336C71.4483 13.0049 72.1049 12.3674 72.9336 11.9211C73.7624 11.4621 74.6868 11.2326 75.7068 11.2326C76.7268 11.2326 77.6511 11.4621 78.4799 11.9211C79.3086 12.3674 79.9589 13.0049 80.4306 13.8336C80.9151 14.6624 81.1574 15.6186 81.1574 16.7024C81.1574 17.7861 80.9088 18.7424 80.4115 19.5711C79.927 20.3999 79.264 21.0437 78.4225 21.5027C77.5938 21.949 76.663 22.1721 75.6303 22.1721ZM75.6303 19.8389C76.1148 19.8389 76.5674 19.7241 76.9881 19.4946C77.4216 19.2524 77.7659 18.8954 78.0209 18.4236C78.2759 17.9519 78.4034 17.3781 78.4034 16.7024C78.4034 15.6951 78.1356 14.9237 77.6001 14.3882C77.0774 13.84 76.4335 13.5659 75.6685 13.5659C74.9035 13.5659 74.2596 13.84 73.7369 14.3882C73.2269 14.9237 72.9719 15.6951 72.9719 16.7024C72.9719 17.7096 73.2205 18.4874 73.7178 19.0356C74.2278 19.5711 74.8653 19.8389 75.6303 19.8389ZM96.3751 11.2517C97.6756 11.2517 98.7211 11.6534 99.5116 12.4566C100.315 13.2471 100.716 14.3564 100.716 15.7844V22H98.0389V16.1477C98.0389 15.319 97.8286 14.6879 97.4078 14.2544C96.9871 13.8081 96.4133 13.585 95.6866 13.585C94.9598 13.585 94.3797 13.8081 93.9462 14.2544C93.5254 14.6879 93.3151 15.319 93.3151 16.1477V22H90.6376V16.1477C90.6376 15.319 90.4272 14.6879 90.0064 14.2544C89.5857 13.8081 89.0119 13.585 88.2852 13.585C87.5457 13.585 86.9592 13.8081 86.5257 14.2544C86.1049 14.6879 85.8946 15.319 85.8946 16.1477V22H83.2171V11.4047H85.8946V12.6861C86.2388 12.2399 86.6787 11.8892 87.2142 11.6342C87.7624 11.3792 88.3617 11.2517 89.0119 11.2517C89.8407 11.2517 90.5802 11.4302 91.2304 11.7872C91.8807 12.1315 92.3843 12.6287 92.7413 13.279C93.0856 12.667 93.5828 12.1761 94.2331 11.8064C94.8961 11.4366 95.6101 11.2517 96.3751 11.2517ZM113.202 16.4729C113.202 16.8554 113.177 17.1996 113.126 17.5056H105.38C105.444 18.2706 105.712 18.8699 106.183 19.3034C106.655 19.7369 107.235 19.9536 107.924 19.9536C108.918 19.9536 109.626 19.5265 110.047 18.6722H112.934C112.628 19.6922 112.042 20.5337 111.175 21.1967C110.308 21.847 109.243 22.1721 107.981 22.1721C106.961 22.1721 106.043 21.949 105.227 21.5027C104.424 21.0437 103.793 20.3999 103.334 19.5711C102.887 18.7424 102.664 17.7861 102.664 16.7024C102.664 15.6059 102.887 14.6432 103.334 13.8145C103.78 12.9857 104.405 12.3482 105.208 11.902C106.011 11.4557 106.936 11.2326 107.981 11.2326C108.988 11.2326 109.887 11.4494 110.678 11.8829C111.481 12.3164 112.099 12.9347 112.533 13.738C112.979 14.5285 113.202 15.4401 113.202 16.4729ZM110.429 15.7079C110.416 15.0194 110.168 14.4711 109.683 14.0631C109.199 13.6424 108.606 13.432 107.905 13.432C107.242 13.432 106.681 13.636 106.222 14.044C105.775 14.4392 105.501 14.9939 105.399 15.7079H110.429ZM127.478 15.1532C128.231 15.2935 128.849 15.6696 129.334 16.2816C129.818 16.8936 130.06 17.5949 130.06 18.3854C130.06 19.0994 129.882 19.7305 129.525 20.2787C129.181 20.8142 128.677 21.235 128.014 21.541C127.351 21.847 126.567 22 125.662 22H119.905V8.65075H125.413C126.318 8.65075 127.096 8.79737 127.746 9.09062C128.409 9.38387 128.906 9.79187 129.238 10.3146C129.582 10.8374 129.754 11.4302 129.754 12.0932C129.754 12.871 129.544 13.5212 129.123 14.044C128.715 14.5667 128.167 14.9365 127.478 15.1532ZM122.582 14.1587H125.03C125.668 14.1587 126.159 14.0185 126.503 13.738C126.847 13.4447 127.019 13.0304 127.019 12.4949C127.019 11.9594 126.847 11.545 126.503 11.2517C126.159 10.9585 125.668 10.8119 125.03 10.8119H122.582V14.1587ZM125.279 19.8197C125.929 19.8197 126.433 19.6667 126.79 19.3607C127.16 19.0547 127.345 18.6212 127.345 18.0602C127.345 17.4865 127.153 17.0402 126.771 16.7215C126.388 16.39 125.872 16.2242 125.222 16.2242H122.582V19.8197H125.279ZM131.601 16.6641C131.601 15.5931 131.812 14.6432 132.232 13.8145C132.666 12.9857 133.246 12.3482 133.973 11.902C134.712 11.4557 135.535 11.2326 136.44 11.2326C137.23 11.2326 137.919 11.392 138.505 11.7107C139.105 12.0295 139.583 12.4311 139.94 12.9156V11.4047H142.636V22H139.94V20.4509C139.596 20.9481 139.117 21.3625 138.505 21.694C137.906 22.0128 137.211 22.1721 136.421 22.1721C135.528 22.1721 134.712 21.9426 133.973 21.4836C133.246 21.0246 132.666 20.3807 132.232 19.552C131.812 18.7105 131.601 17.7479 131.601 16.6641ZM139.94 16.7024C139.94 16.0521 139.812 15.4975 139.557 15.0385C139.302 14.5667 138.958 14.2097 138.525 13.9675C138.091 13.7125 137.626 13.585 137.128 13.585C136.631 13.585 136.172 13.7061 135.751 13.9484C135.331 14.1906 134.986 14.5476 134.719 15.0194C134.464 15.4784 134.336 16.0266 134.336 16.6641C134.336 17.3016 134.464 17.8626 134.719 18.3471C134.986 18.8189 135.331 19.1822 135.751 19.4372C136.185 19.6922 136.644 19.8197 137.128 19.8197C137.626 19.8197 138.091 19.6986 138.525 19.4564C138.958 19.2014 139.302 18.8444 139.557 18.3854C139.812 17.9136 139.94 17.3526 139.94 16.7024ZM144.659 16.7024C144.659 15.6059 144.882 14.6496 145.328 13.8336C145.774 13.0049 146.393 12.3674 147.183 11.9211C147.974 11.4621 148.879 11.2326 149.899 11.2326C151.212 11.2326 152.296 11.5641 153.15 12.2271C154.017 12.8774 154.597 13.7954 154.891 14.9811H152.003C151.85 14.5221 151.588 14.1651 151.219 13.9101C150.862 13.6424 150.415 13.5085 149.88 13.5085C149.115 13.5085 148.509 13.789 148.063 14.35C147.617 14.8982 147.394 15.6824 147.394 16.7024C147.394 17.7096 147.617 18.4937 148.063 19.0547C148.509 19.603 149.115 19.8771 149.88 19.8771C150.964 19.8771 151.671 19.3926 152.003 18.4236H154.891C154.597 19.5711 154.017 20.4827 153.15 21.1585C152.283 21.8342 151.199 22.1721 149.899 22.1721C148.879 22.1721 147.974 21.949 147.183 21.5027C146.393 21.0437 145.774 20.4062 145.328 19.5902C144.882 18.7615 144.659 17.7989 144.659 16.7024ZM163.221 22L159.625 17.4865V22H156.948V7.8475H159.625V15.8991L163.182 11.4047H166.663L161.997 16.7215L166.701 22H163.221ZM171.674 8.42125L171.368 17.6586H169.111L168.786 8.42125H171.674ZM170.297 22.1339C169.812 22.1339 169.411 21.9872 169.092 21.694C168.786 21.388 168.633 21.0119 168.633 20.5656C168.633 20.1194 168.786 19.7496 169.092 19.4564C169.411 19.1504 169.812 18.9974 170.297 18.9974C170.768 18.9974 171.157 19.1504 171.463 19.4564C171.769 19.7496 171.922 20.1194 171.922 20.5656C171.922 21.0119 171.769 21.388 171.463 21.694C171.157 21.9872 170.768 22.1339 170.297 22.1339ZM178.53 8.42125L178.224 17.6586H175.967L175.642 8.42125H178.53ZM177.153 22.1339C176.669 22.1339 176.267 21.9872 175.948 21.694C175.642 21.388 175.489 21.0119 175.489 20.5656C175.489 20.1194 175.642 19.7496 175.948 19.4564C176.267 19.1504 176.669 18.9974 177.153 18.9974C177.625 18.9974 178.014 19.1504 178.32 19.4564C178.626 19.7496 178.779 20.1194 178.779 20.5656C178.779 21.0119 178.626 21.388 178.32 21.694C178.014 21.9872 177.625 22.1339 177.153 22.1339Z" fill="#FAF7FF"/>
<path d="M40.1633 8.65075L40.286 8.68506L40.3313 8.52325H40.1633V8.65075ZM36.4339 22V22.1275H36.5306L36.5567 22.0343L36.4339 22ZM33.2783 22L33.155 22.0325L33.18 22.1275H33.2783V22ZM30.7729 12.4949L30.8962 12.4624L30.7756 12.0051L30.65 12.461L30.7729 12.4949ZM28.1528 22L28.1535 22.1275L28.25 22.1269L28.2757 22.0339L28.1528 22ZM25.0163 22.0191L24.8931 22.0522L24.9187 22.1472L25.017 22.1466L25.0163 22.0191ZM21.4208 8.65075V8.52325H21.2544L21.2976 8.68386L21.4208 8.65075ZM24.2895 8.65075L24.4138 8.62253L24.3913 8.52325H24.2895V8.65075ZM26.6419 19.0165L26.5175 19.0447L26.7652 19.0488L26.6419 19.0165ZM29.3576 8.65075V8.52325H29.2592L29.2343 8.61844L29.3576 8.65075ZM32.3411 8.65075L32.4649 8.61999L32.4408 8.52325H32.3411V8.65075ZM34.9039 18.9591L34.7801 18.9899L35.0281 18.9877L34.9039 18.9591ZM37.2754 8.65075V8.52325H37.1739L37.1511 8.62216L37.2754 8.65075ZM40.0405 8.61644L36.3111 21.9657L36.5567 22.0343L40.286 8.68506L40.0405 8.61644ZM36.4339 21.8725H33.2783V22.1275H36.4339V21.8725ZM33.4015 21.9675L30.8962 12.4624L30.6496 12.5274L33.155 22.0325L33.4015 21.9675ZM30.65 12.461L28.0298 21.9661L28.2757 22.0339L30.8958 12.5288L30.65 12.461ZM28.152 21.8725L25.0155 21.8916L25.017 22.1466L28.1535 22.1275L28.152 21.8725ZM25.1394 21.986L21.5439 8.61763L21.2976 8.68386L24.8931 22.0522L25.1394 21.986ZM21.4208 8.77825H24.2895V8.52325H21.4208V8.77825ZM24.1652 8.67897L26.5175 19.0447L26.7662 18.9883L24.4138 8.62253L24.1652 8.67897ZM26.7652 19.0488L29.481 8.68306L29.2343 8.61844L26.5185 18.9842L26.7652 19.0488ZM29.3576 8.77825H32.3411V8.52325H29.3576V8.77825ZM32.2174 8.68151L34.7801 18.9899L35.0276 18.9284L32.4649 8.61999L32.2174 8.68151ZM35.0281 18.9877L37.3996 8.67934L37.1511 8.62216L34.7796 18.9305L35.0281 18.9877ZM37.2754 8.77825H40.1633V8.52325H37.2754V8.77825ZM51.78 17.5056V17.6331H51.8881L51.9058 17.5266L51.78 17.5056ZM44.0344 17.5056V17.3781H43.8959L43.9074 17.5162L44.0344 17.5056ZM44.8377 19.3034L44.7514 19.3973L44.7514 19.3973L44.8377 19.3034ZM48.7009 18.6722V18.5447H48.6216L48.5865 18.6159L48.7009 18.6722ZM51.5888 18.6722L51.7109 18.7089L51.7602 18.5447H51.5888V18.6722ZM49.8293 21.1967L49.9058 21.2988L49.9067 21.298L49.8293 21.1967ZM43.8814 21.5027L43.8182 21.6135L43.8202 21.6146L43.8814 21.5027ZM41.988 19.5711L41.8758 19.6316L41.8765 19.6329L41.988 19.5711ZM41.988 13.8145L41.8758 13.7541L41.8758 13.7541L41.988 13.8145ZM43.8623 11.902L43.9242 12.0135L43.9242 12.0135L43.8623 11.902ZM49.332 11.8829L49.2707 11.9947L49.2715 11.9951L49.332 11.8829ZM51.1872 13.738L51.0749 13.7986L51.0761 13.8007L51.1872 13.738ZM49.0834 15.7079V15.8354H49.2133L49.2109 15.7055L49.0834 15.7079ZM48.3375 14.0631L48.2539 14.1594L48.2554 14.1607L48.3375 14.0631ZM44.8759 14.044L44.9605 14.1394L44.9606 14.1393L44.8759 14.044ZM44.0535 15.7079L43.9273 15.6898L43.9065 15.8354H44.0535V15.7079ZM51.729 16.4729C51.729 16.8499 51.7039 17.187 51.6543 17.4847L51.9058 17.5266C51.9582 17.2123 51.984 16.8608 51.984 16.4729H51.729ZM51.78 17.3781H44.0344V17.6331H51.78V17.3781ZM43.9074 17.5162C43.9732 18.3064 44.2516 18.9379 44.7514 19.3973L44.9239 19.2095C44.4803 18.8018 44.2231 18.2348 44.1615 17.495L43.9074 17.5162ZM44.7514 19.3973C45.2485 19.8541 45.8602 20.0811 46.578 20.0811V19.8261C45.9189 19.8261 45.3703 19.6197 44.9239 19.2095L44.7514 19.3973ZM46.578 20.0811C47.0938 20.0811 47.5431 19.9702 47.9205 19.7424C48.2983 19.5144 48.5958 19.1742 48.8153 18.7286L48.5865 18.6159C48.3853 19.0246 48.1187 19.325 47.7888 19.5241C47.4585 19.7235 47.0568 19.8261 46.578 19.8261V20.0811ZM48.7009 18.7997H51.5888V18.5447H48.7009V18.7997ZM51.4667 18.6356C51.1686 19.6292 50.5981 20.4483 49.7518 21.0955L49.9067 21.298C50.7945 20.6192 51.397 19.7553 51.7109 18.7089L51.4667 18.6356ZM49.7528 21.0947C48.9114 21.7258 47.8748 22.0446 46.6354 22.0446V22.2996C47.9205 22.2996 49.0132 21.9682 49.9058 21.2987L49.7528 21.0947ZM46.6354 22.0446C45.6347 22.0446 44.7381 21.8259 43.9426 21.3909L43.8202 21.6146C44.6568 22.0721 45.5962 22.2996 46.6354 22.2996V22.0446ZM43.9447 21.392C43.1622 20.9449 42.5476 20.3182 42.0996 19.5094L41.8765 19.6329C42.3465 20.4816 42.9941 21.1426 43.8182 21.6135L43.9447 21.392ZM42.1003 19.5107C41.6655 18.7031 41.4462 17.7682 41.4462 16.7024H41.1912C41.1912 17.804 41.4181 18.7816 41.8758 19.6316L42.1003 19.5107ZM41.4462 16.7024C41.4462 15.6235 41.6656 14.6823 42.1003 13.8749L41.8758 13.7541C41.418 14.6042 41.1912 15.5883 41.1912 16.7024H41.4462ZM42.1003 13.8749C42.5353 13.0671 43.1428 12.4476 43.9242 12.0135L43.8004 11.7905C42.9753 12.2489 42.3333 12.9044 41.8758 13.7541L42.1003 13.8749ZM43.9242 12.0135C44.706 11.5791 45.6086 11.3601 46.6354 11.3601V11.1051C45.5713 11.1051 44.625 11.3324 43.8004 11.7905L43.9242 12.0135ZM46.6354 11.3601C47.6238 11.3601 48.5012 11.5726 49.2707 11.9947L49.3934 11.7711C48.5819 11.3261 47.6615 11.1051 46.6354 11.1051V11.3601ZM49.2715 11.9951C50.0529 12.4168 50.6533 13.0172 51.075 13.7986L51.2994 13.6774C50.8541 12.8523 50.2177 12.216 49.3926 11.7707L49.2715 11.9951ZM51.0761 13.8007C51.5102 14.5695 51.729 15.459 51.729 16.4729H51.984C51.984 15.4212 51.7567 14.4875 51.2982 13.6753L51.0761 13.8007ZM49.2109 15.7055C49.1975 14.9838 48.935 14.3995 48.4197 13.9656L48.2554 14.1607C48.7091 14.5427 48.9438 15.0549 48.9559 15.7102L49.2109 15.7055ZM48.4211 13.9669C47.9112 13.524 47.2878 13.3045 46.5589 13.3045V13.5595C47.2325 13.5595 47.7949 13.7607 48.2539 14.1594L48.4211 13.9669ZM46.5589 13.3045C45.8674 13.3045 45.2755 13.5182 44.7912 13.9487L44.9606 14.1393C45.3943 13.7538 45.9244 13.5595 46.5589 13.5595V13.3045ZM44.7914 13.9486C44.318 14.3678 44.0327 14.9525 43.9273 15.6898L44.1798 15.7259C44.2784 15.0353 44.5413 14.5107 44.9605 14.1394L44.7914 13.9486ZM44.0535 15.8354H49.0834V15.5804H44.0535V15.8354ZM56.584 7.8475H56.7115V7.72H56.584V7.8475ZM56.584 22V22.1275H56.7115V22H56.584ZM53.9065 22H53.779V22.1275H53.9065V22ZM53.9065 7.8475V7.72H53.779V7.8475H53.9065ZM56.4565 7.8475V22H56.7115V7.8475H56.4565ZM56.584 21.8725H53.9065V22.1275H56.584V21.8725ZM54.034 22V7.8475H53.779V22H54.034ZM53.9065 7.975H56.584V7.72H53.9065V7.975ZM59.3059 13.8336L59.4177 13.8948L59.4181 13.8941L59.3059 13.8336ZM61.161 11.9211L61.2237 12.0322L61.225 12.0314L61.161 11.9211ZM67.128 12.2271L67.0498 12.3279L67.0515 12.3291L67.128 12.2271ZM68.8684 14.9811V15.1086H69.0313L68.9922 14.9505L68.8684 14.9811ZM65.9805 14.9811L65.8596 15.0214L65.8886 15.1086H65.9805V14.9811ZM65.1964 13.9101L65.1198 14.0122L65.124 14.0151L65.1964 13.9101ZM62.0408 14.35L62.1396 14.4305L62.1405 14.4294L62.0408 14.35ZM62.0408 19.0547L61.941 19.1341L61.9419 19.1352L62.0408 19.0547ZM65.9805 18.4236V18.2961H65.8894L65.8599 18.3824L65.9805 18.4236ZM68.8684 18.4236L68.9919 18.4552L69.0326 18.2961H68.8684V18.4236ZM67.128 21.1585L67.2064 21.2591L67.2064 21.2591L67.128 21.1585ZM61.161 21.5027L61.097 21.613L61.0983 21.6138L61.161 21.5027ZM59.3059 19.5902L59.1936 19.6507L59.194 19.6514L59.3059 19.5902ZM58.764 16.7024C58.764 15.6234 58.9835 14.6889 59.4177 13.8948L59.194 13.7724C58.7358 14.6103 58.509 15.5883 58.509 16.7024H58.764ZM59.4181 13.8941C59.8534 13.0857 60.455 12.4661 61.2237 12.0322L61.0983 11.8101C60.2861 12.2686 59.6508 12.924 59.1936 13.7732L59.4181 13.8941ZM61.225 12.0314C61.9939 11.5849 62.8766 11.3601 63.8768 11.3601V11.1051C62.8369 11.1051 61.9091 11.3393 61.097 11.8109L61.225 12.0314ZM63.8768 11.3601C65.1679 11.3601 66.2224 11.6857 67.0498 12.3278L67.2062 12.1264C66.3251 11.4426 65.2121 11.1051 63.8768 11.1051V11.3601ZM67.0515 12.3291C67.892 12.9595 68.4575 13.8507 68.7446 15.0117L68.9922 14.9505C68.6928 13.7401 68.098 12.7952 67.2045 12.1251L67.0515 12.3291ZM68.8684 14.8536H65.9805V15.1086H68.8684V14.8536ZM66.1015 14.9408C65.9404 14.4577 65.6631 14.0771 65.2688 13.8052L65.124 14.0151C65.4692 14.2531 65.7146 14.5865 65.8596 15.0214L66.1015 14.9408ZM65.2729 13.8081C64.8897 13.5207 64.415 13.381 63.8576 13.381V13.636C64.3712 13.636 64.7891 13.764 65.1199 14.0121L65.2729 13.8081ZM63.8576 13.381C63.0568 13.381 62.4132 13.6769 61.941 14.2706L62.1405 14.4294C62.5608 13.9011 63.1285 13.636 63.8576 13.636V13.381ZM61.9419 14.2695C61.4705 14.8487 61.2439 15.6657 61.2439 16.7024H61.4989C61.4989 15.699 61.7186 14.9478 62.1396 14.4305L61.9419 14.2695ZM61.2439 16.7024C61.2439 17.727 61.4708 18.543 61.941 19.1341L62.1405 18.9754C61.7183 18.4445 61.4989 17.6923 61.4989 16.7024H61.2439ZM61.9419 19.1352C62.4145 19.7159 63.0579 20.0046 63.8576 20.0046V19.7496C63.1274 19.7496 62.5595 19.4901 62.1396 18.9743L61.9419 19.1352ZM63.8576 20.0046C64.4184 20.0046 64.8932 19.8791 65.2732 19.619C65.6538 19.3583 65.9283 18.9702 66.1011 18.4649L65.8599 18.3824C65.7012 18.8461 65.4561 19.1847 65.1291 19.4085C64.8015 19.6329 64.3806 19.7496 63.8576 19.7496V20.0046ZM65.9805 18.5511H68.8684V18.2961H65.9805V18.5511ZM68.7449 18.3921C68.458 19.5145 67.8926 20.4009 67.0496 21.0579L67.2064 21.2591C68.0974 20.5646 68.6922 19.6278 68.9919 18.4552L68.7449 18.3921ZM67.0496 21.0579C66.2089 21.7132 65.1543 22.0446 63.8768 22.0446V22.2996C65.2003 22.2996 66.3131 21.9553 67.2064 21.2591L67.0496 21.0579ZM63.8768 22.0446C62.876 22.0446 61.9928 21.8259 61.2237 21.3917L61.0983 21.6138C61.9102 22.0721 62.8376 22.2996 63.8768 22.2996V22.0446ZM61.225 21.3925C60.455 20.9454 59.853 20.325 59.4177 19.5291L59.194 19.6514C59.6512 20.4875 60.286 21.1421 61.097 21.613L61.225 21.3925ZM59.4181 19.5298C58.9834 18.7225 58.764 17.7813 58.764 16.7024H58.509C58.509 17.8165 58.7358 18.8005 59.1936 19.6507L59.4181 19.5298ZM72.8763 21.5027L72.8138 21.6139L72.8151 21.6146L72.8763 21.5027ZM70.9446 19.5711L70.8331 19.6329L70.8338 19.6342L70.9446 19.5711ZM70.9638 13.8336L70.8537 13.7693L70.853 13.7706L70.9638 13.8336ZM72.9336 11.9211L72.9941 12.0334L72.9954 12.0327L72.9336 11.9211ZM78.4799 11.9211L78.4181 12.0327L78.4194 12.0334L78.4799 11.9211ZM80.4306 13.8336L80.3198 13.8967L80.3206 13.898L80.4306 13.8336ZM80.4115 19.5711L80.3022 19.5055L80.3014 19.5068L80.4115 19.5711ZM78.4225 21.5027L78.483 21.615L78.4836 21.6147L78.4225 21.5027ZM76.9881 19.4946L77.0492 19.6066L77.0503 19.6059L76.9881 19.4946ZM78.0209 18.4236L78.1331 18.4843L78.1331 18.4843L78.0209 18.4236ZM77.6001 14.3882L77.5078 14.4763L77.51 14.4784L77.6001 14.3882ZM73.7369 14.3882L73.6446 14.3003L73.6446 14.3003L73.7369 14.3882ZM73.7178 19.0356L73.6233 19.1213L73.6254 19.1236L73.7178 19.0356ZM75.6303 22.0446C74.6295 22.0446 73.7329 21.8259 72.9374 21.3909L72.8151 21.6146C73.6516 22.0721 74.591 22.2996 75.6303 22.2996V22.0446ZM72.9388 21.3916C72.1433 20.9442 71.516 20.3171 71.0554 19.5081L70.8338 19.6342C71.3168 20.4827 71.9772 21.1433 72.8138 21.6139L72.9388 21.3916ZM71.0562 19.5094C70.6091 18.7021 70.3836 17.7677 70.3836 16.7024H70.1286C70.1286 17.8046 70.3622 18.7827 70.8331 19.6329L71.0562 19.5094ZM70.3836 16.7024C70.3836 15.6377 70.6152 14.7037 71.0746 13.8967L70.853 13.7706C70.3688 14.621 70.1286 15.5996 70.1286 16.7024H70.3836ZM71.0738 13.898C71.5468 13.089 72.1864 12.4683 72.9941 12.0334L72.8732 11.8089C72.0234 12.2665 71.3498 12.9207 70.8537 13.7693L71.0738 13.898ZM72.9954 12.0327C73.8038 11.5849 74.7067 11.3601 75.7068 11.3601V11.1051C74.6669 11.1051 73.721 11.3393 72.8719 11.8096L72.9954 12.0327ZM75.7068 11.3601C76.7069 11.3601 77.6097 11.5849 78.4181 12.0327L78.5417 11.8096C77.6926 11.3393 76.7467 11.1051 75.7068 11.1051V11.3601ZM78.4194 12.0334C79.2268 12.4681 79.8598 13.0885 80.3198 13.8967L80.5414 13.7706C80.058 12.9213 79.3904 12.2666 78.5403 11.8089L78.4194 12.0334ZM80.3206 13.898C80.7922 14.7048 81.0299 15.6383 81.0299 16.7024H81.2849C81.2849 15.599 81.038 14.62 80.5407 13.7693L80.3206 13.898ZM81.0299 16.7024C81.0299 17.7659 80.7861 18.6989 80.3022 19.5055L80.5208 19.6367C81.0314 18.7858 81.2849 17.8064 81.2849 16.7024H81.0299ZM80.3014 19.5068C79.8286 20.3155 79.1826 20.9429 78.3615 21.3908L78.4836 21.6147C79.3455 21.1446 80.0254 20.4842 80.5216 19.6355L80.3014 19.5068ZM78.3621 21.3905C77.5537 21.8258 76.644 22.0446 75.6303 22.0446V22.2996C76.682 22.2996 77.6339 22.0722 78.483 21.615L78.3621 21.3905ZM75.6303 19.9664C76.1359 19.9664 76.6095 19.8464 77.0492 19.6066L76.9271 19.3827C76.5253 19.6019 76.0937 19.7114 75.6303 19.7114V19.9664ZM77.0503 19.6059C77.5067 19.3509 77.8675 18.9755 78.1331 18.4843L77.9087 18.363C77.6643 18.8152 77.3366 19.1538 76.9259 19.3833L77.0503 19.6059ZM78.1331 18.4843C78.4004 17.9896 78.5309 17.3939 78.5309 16.7024H78.2759C78.2759 17.3624 78.1514 17.9141 77.9087 18.363L78.1331 18.4843ZM78.5309 16.7024C78.5309 15.6728 78.2568 14.8646 77.6903 14.2981L77.51 14.4784C78.0145 14.9829 78.2759 15.7174 78.2759 16.7024H78.5309ZM77.6924 14.3003C77.1453 13.7265 76.468 13.4384 75.6685 13.4384V13.6934C76.399 13.6934 77.0094 13.9535 77.5079 14.4762L77.6924 14.3003ZM75.6685 13.4384C74.869 13.4384 74.1917 13.7265 73.6446 14.3003L73.8292 14.4762C74.3276 13.9535 74.938 13.6934 75.6685 13.6934V13.4384ZM73.6446 14.3003C73.1048 14.867 72.8444 15.6744 72.8444 16.7024H73.0994C73.0994 15.7158 73.3489 14.9805 73.8292 14.4762L73.6446 14.3003ZM72.8444 16.7024C72.8444 17.7297 73.0981 18.5422 73.6233 19.1213L73.8122 18.95C73.3429 18.4325 73.0994 17.6895 73.0994 16.7024H72.8444ZM73.6254 19.1236C74.1604 19.6853 74.8317 19.9664 75.6303 19.9664V19.7114C74.8988 19.7114 74.2951 19.457 73.8101 18.9477L73.6254 19.1236ZM99.5116 12.4566L99.4207 12.5461L99.4221 12.5475L99.5116 12.4566ZM100.716 22V22.1275H100.844V22H100.716ZM98.0389 22H97.9114V22.1275H98.0389V22ZM97.4078 14.2544L97.315 14.3419L97.3163 14.3432L97.4078 14.2544ZM93.9462 14.2544L93.8547 14.1655L93.8547 14.1656L93.9462 14.2544ZM93.3151 22V22.1275H93.4426V22H93.3151ZM90.6376 22H90.5101V22.1275H90.6376V22ZM90.0064 14.2544L89.9137 14.3419L89.9149 14.3432L90.0064 14.2544ZM86.5257 14.2544L86.4342 14.1655L86.4342 14.1656L86.5257 14.2544ZM85.8946 22V22.1275H86.0221V22H85.8946ZM83.2171 22H83.0896V22.1275H83.2171V22ZM83.2171 11.4047V11.2772H83.0896V11.4047H83.2171ZM85.8946 11.4047H86.0221V11.2772H85.8946V11.4047ZM85.8946 12.6861H85.7671V13.0601L85.9955 12.764L85.8946 12.6861ZM87.2142 11.6342L87.1604 11.5186L87.1594 11.5191L87.2142 11.6342ZM91.2304 11.7872L91.1691 11.899L91.1708 11.8999L91.2304 11.7872ZM92.7413 13.279L92.6295 13.3404L92.74 13.5415L92.8524 13.3415L92.7413 13.279ZM94.2331 11.8064L94.171 11.695L94.17 11.6955L94.2331 11.8064ZM96.3751 11.3792C97.6471 11.3792 98.6579 11.771 99.4207 12.5461L99.6024 12.3672C98.7842 11.5358 97.704 11.1242 96.3751 11.1242V11.3792ZM99.4221 12.5475C100.195 13.308 100.589 14.3809 100.589 15.7844H100.844C100.844 14.3318 100.435 13.1862 99.601 12.3658L99.4221 12.5475ZM100.589 15.7844V22H100.844V15.7844H100.589ZM100.716 21.8725H98.0389V22.1275H100.716V21.8725ZM98.1664 22V16.1477H97.9114V22H98.1664ZM98.1664 16.1477C98.1664 15.2984 97.9506 14.6306 97.4993 14.1656L97.3163 14.3432C97.7065 14.7452 97.9114 15.3396 97.9114 16.1477H98.1664ZM97.5006 14.1669C97.0513 13.6904 96.4414 13.4575 95.6866 13.4575V13.7125C96.3852 13.7125 96.9228 13.9259 97.315 14.3418L97.5006 14.1669ZM95.6866 13.4575C94.9316 13.4575 94.3163 13.6904 93.8547 14.1655L94.0376 14.3432C94.4431 13.9258 94.988 13.7125 95.6866 13.7125V13.4575ZM93.8547 14.1656C93.4034 14.6306 93.1876 15.2984 93.1876 16.1477H93.4426C93.4426 15.3396 93.6475 14.7452 94.0377 14.3432L93.8547 14.1656ZM93.1876 16.1477V22H93.4426V16.1477H93.1876ZM93.3151 21.8725H90.6376V22.1275H93.3151V21.8725ZM90.7651 22V16.1477H90.5101V22H90.7651ZM90.7651 16.1477C90.7651 15.2984 90.5492 14.6306 90.0979 14.1656L89.9149 14.3432C90.3051 14.7452 90.5101 15.3396 90.5101 16.1477H90.7651ZM90.0992 14.1669C89.6499 13.6904 89.04 13.4575 88.2852 13.4575V13.7125C88.9839 13.7125 89.5215 13.9259 89.9137 14.3418L90.0992 14.1669ZM88.2852 13.4575C87.5182 13.4575 86.8962 13.69 86.4342 14.1655L86.6171 14.3432C87.0222 13.9263 87.5731 13.7125 88.2852 13.7125V13.4575ZM86.4342 14.1656C85.9829 14.6306 85.7671 15.2984 85.7671 16.1477H86.0221C86.0221 15.3396 86.227 14.7452 86.6172 14.3432L86.4342 14.1656ZM85.7671 16.1477V22H86.0221V16.1477H85.7671ZM85.8946 21.8725H83.2171V22.1275H85.8946V21.8725ZM83.3446 22V11.4047H83.0896V22H83.3446ZM83.2171 11.5322H85.8946V11.2772H83.2171V11.5322ZM85.7671 11.4047V12.6861H86.0221V11.4047H85.7671ZM85.9955 12.764C86.3269 12.3345 86.7506 11.9962 87.269 11.7494L87.1594 11.5191C86.6068 11.7823 86.1507 12.1453 85.7936 12.6082L85.9955 12.764ZM87.268 11.7499C87.7981 11.5033 88.3788 11.3792 89.0119 11.3792V11.1242C88.3445 11.1242 87.7268 11.2552 87.1604 11.5186L87.268 11.7499ZM89.0119 11.3792C89.8218 11.3792 90.5398 11.5535 91.1691 11.899L91.2918 11.6755C90.6206 11.307 89.8596 11.1242 89.0119 11.1242V11.3792ZM91.1708 11.8999C91.7988 12.2324 92.2844 12.7117 92.6295 13.3404L92.8531 13.2176C92.4842 12.5458 91.9625 12.0306 91.2901 11.6746L91.1708 11.8999ZM92.8524 13.3415C93.1846 12.751 93.6646 12.2763 94.2961 11.9172L94.17 11.6955C93.501 12.076 92.9865 12.583 92.6302 13.2165L92.8524 13.3415ZM94.2952 11.9177C94.939 11.5587 95.6316 11.3792 96.3751 11.3792V11.1242C95.5885 11.1242 94.8531 11.3146 94.171 11.695L94.2952 11.9177ZM113.126 17.5056V17.6331H113.234L113.251 17.5266L113.126 17.5056ZM105.38 17.5056V17.3781H105.242L105.253 17.5162L105.38 17.5056ZM106.183 19.3034L106.097 19.3973L106.097 19.3973L106.183 19.3034ZM110.047 18.6722V18.5447H109.967L109.932 18.6159L110.047 18.6722ZM112.934 18.6722L113.057 18.7089L113.106 18.5447H112.934V18.6722ZM111.175 21.1967L111.251 21.2988L111.252 21.298L111.175 21.1967ZM105.227 21.5027L105.164 21.6135L105.166 21.6146L105.227 21.5027ZM103.334 19.5711L103.221 19.6316L103.222 19.6329L103.334 19.5711ZM103.334 13.8145L103.221 13.7541L103.221 13.7541L103.334 13.8145ZM105.208 11.902L105.27 12.0135L105.27 12.0135L105.208 11.902ZM110.678 11.8829L110.616 11.9947L110.617 11.9951L110.678 11.8829ZM112.533 13.738L112.421 13.7986L112.422 13.8007L112.533 13.738ZM110.429 15.7079V15.8354H110.559L110.557 15.7055L110.429 15.7079ZM109.683 14.0631L109.6 14.1594L109.601 14.1607L109.683 14.0631ZM106.222 14.044L106.306 14.1394L106.306 14.1393L106.222 14.044ZM105.399 15.7079L105.273 15.6898L105.252 15.8354H105.399V15.7079ZM113.075 16.4729C113.075 16.8499 113.05 17.187 113 17.4847L113.251 17.5266C113.304 17.2123 113.33 16.8608 113.33 16.4729H113.075ZM113.126 17.3781H105.38V17.6331H113.126V17.3781ZM105.253 17.5162C105.319 18.3064 105.597 18.9379 106.097 19.3973L106.27 19.2095C105.826 18.8018 105.569 18.2348 105.507 17.495L105.253 17.5162ZM106.097 19.3973C106.594 19.8541 107.206 20.0811 107.924 20.0811V19.8261C107.265 19.8261 106.716 19.6197 106.27 19.2095L106.097 19.3973ZM107.924 20.0811C108.439 20.0811 108.889 19.9702 109.266 19.7424C109.644 19.5144 109.942 19.1742 110.161 18.7286L109.932 18.6159C109.731 19.0246 109.464 19.325 109.134 19.5241C108.804 19.7235 108.402 19.8261 107.924 19.8261V20.0811ZM110.047 18.7997H112.934V18.5447H110.047V18.7997ZM112.812 18.6356C112.514 19.6292 111.944 20.4483 111.098 21.0955L111.252 21.298C112.14 20.6192 112.743 19.7553 113.057 18.7089L112.812 18.6356ZM111.098 21.0947C110.257 21.7258 109.22 22.0446 107.981 22.0446V22.2996C109.266 22.2996 110.359 21.9682 111.251 21.2987L111.098 21.0947ZM107.981 22.0446C106.98 22.0446 106.084 21.8259 105.288 21.3909L105.166 21.6146C106.002 22.0721 106.942 22.2996 107.981 22.2996V22.0446ZM105.29 21.392C104.508 20.9449 103.893 20.3182 103.445 19.5094L103.222 19.6329C103.692 20.4816 104.34 21.1426 105.164 21.6135L105.29 21.392ZM103.446 19.5107C103.011 18.7031 102.792 17.7682 102.792 16.7024H102.537C102.537 17.804 102.764 18.7816 103.221 19.6316L103.446 19.5107ZM102.792 16.7024C102.792 15.6235 103.011 14.6823 103.446 13.8749L103.221 13.7541C102.764 14.6042 102.537 15.5883 102.537 16.7024H102.792ZM103.446 13.8749C103.881 13.0671 104.488 12.4476 105.27 12.0135L105.146 11.7905C104.321 12.2489 103.679 12.9044 103.221 13.7541L103.446 13.8749ZM105.27 12.0135C106.052 11.5791 106.954 11.3601 107.981 11.3601V11.1051C106.917 11.1051 105.971 11.3324 105.146 11.7905L105.27 12.0135ZM107.981 11.3601C108.969 11.3601 109.847 11.5726 110.616 11.9947L110.739 11.7711C109.928 11.3261 109.007 11.1051 107.981 11.1051V11.3601ZM110.617 11.9951C111.399 12.4168 111.999 13.0172 112.421 13.7986L112.645 13.6774C112.2 12.8523 111.563 12.216 110.738 11.7707L110.617 11.9951ZM112.422 13.8007C112.856 14.5695 113.075 15.459 113.075 16.4729H113.33C113.33 15.4212 113.102 14.4875 112.644 13.6753L112.422 13.8007ZM110.557 15.7055C110.543 14.9838 110.281 14.3995 109.765 13.9656L109.601 14.1607C110.055 14.5427 110.289 15.0549 110.302 15.7102L110.557 15.7055ZM109.767 13.9669C109.257 13.524 108.633 13.3045 107.905 13.3045V13.5595C108.578 13.5595 109.141 13.7607 109.6 14.1594L109.767 13.9669ZM107.905 13.3045C107.213 13.3045 106.621 13.5182 106.137 13.9487L106.306 14.1393C106.74 13.7538 107.27 13.5595 107.905 13.5595V13.3045ZM106.137 13.9486C105.664 14.3678 105.378 14.9525 105.273 15.6898L105.525 15.7259C105.624 15.0353 105.887 14.5107 106.306 14.1394L106.137 13.9486ZM105.399 15.8354H110.429V15.5804H105.399V15.8354ZM127.478 15.1532L127.44 15.0316L127.455 15.2786L127.478 15.1532ZM129.334 16.2816L129.434 16.2025L129.434 16.2025L129.334 16.2816ZM129.525 20.2787L129.418 20.2092L129.418 20.2098L129.525 20.2787ZM128.014 21.541L128.067 21.6568L128.067 21.6568L128.014 21.541ZM119.905 22H119.777V22.1275H119.905V22ZM119.905 8.65075V8.52325H119.777V8.65075H119.905ZM127.746 9.09062L127.694 9.20686L127.695 9.20723L127.746 9.09062ZM129.238 10.3146L129.13 10.3829L129.131 10.3847L129.238 10.3146ZM129.123 14.044L129.024 13.964L129.023 13.9656L129.123 14.044ZM122.582 14.1587H122.455V14.2862H122.582V14.1587ZM126.503 13.738L126.584 13.8369L126.586 13.8351L126.503 13.738ZM126.503 11.2517L126.586 11.1547L126.586 11.1547L126.503 11.2517ZM122.582 10.8119V10.6844H122.455V10.8119H122.582ZM126.79 19.3607L126.709 19.2625L126.707 19.2639L126.79 19.3607ZM126.771 16.7215L126.687 16.8179L126.689 16.8194L126.771 16.7215ZM122.582 16.2242V16.0967H122.455V16.2242H122.582ZM122.582 19.8197H122.455V19.9472H122.582V19.8197ZM127.455 15.2786C128.176 15.4131 128.768 15.7724 129.234 16.3608L129.434 16.2025C128.93 15.5669 128.285 15.1739 127.502 15.0279L127.455 15.2786ZM129.234 16.3608C129.7 16.9499 129.933 17.6232 129.933 18.3854H130.188C130.188 17.5665 129.936 16.8373 129.434 16.2025L129.234 16.3608ZM129.933 18.3854C129.933 19.077 129.76 19.6835 129.418 20.2092L129.632 20.3483C130.003 19.7775 130.188 19.1217 130.188 18.3854H129.933ZM129.418 20.2098C129.088 20.722 128.605 21.1279 127.961 21.4252L128.067 21.6568C128.749 21.3421 129.273 20.9065 129.632 20.3477L129.418 20.2098ZM127.961 21.4252C127.318 21.7219 126.553 21.8725 125.662 21.8725V22.1275C126.581 22.1275 127.384 21.9721 128.067 21.6568L127.961 21.4252ZM125.662 21.8725H119.905V22.1275H125.662V21.8725ZM120.032 22V8.65075H119.777V22H120.032ZM119.905 8.77825H125.413V8.52325H119.905V8.77825ZM125.413 8.77825C126.305 8.77825 127.064 8.92275 127.694 9.20685L127.799 8.9744C127.128 8.672 126.332 8.52325 125.413 8.52325V8.77825ZM127.695 9.20723C128.339 9.49206 128.814 9.88491 129.13 10.3829L129.346 10.2463C128.998 9.69884 128.48 9.27569 127.798 8.97402L127.695 9.20723ZM129.131 10.3847C129.461 10.8854 129.627 11.4536 129.627 12.0932H129.882C129.882 11.4069 129.703 10.7893 129.344 10.2445L129.131 10.3847ZM129.627 12.0932C129.627 12.8468 129.424 13.4675 129.024 13.9641L129.223 14.1239C129.664 13.575 129.882 12.8952 129.882 12.0932H129.627ZM129.023 13.9656C128.632 14.4661 128.106 14.8219 127.44 15.0316L127.517 15.2749C128.228 15.0511 128.798 14.6674 129.224 14.1224L129.023 13.9656ZM122.582 14.2862H125.03V14.0312H122.582V14.2862ZM125.03 14.2862C125.685 14.2862 126.209 14.1425 126.584 13.8368L126.423 13.6392C126.109 13.8945 125.651 14.0312 125.03 14.0312V14.2862ZM126.586 13.8351C126.964 13.5131 127.147 13.0601 127.147 12.4949H126.892C126.892 13.0006 126.731 13.3764 126.42 13.6409L126.586 13.8351ZM127.147 12.4949C127.147 11.9296 126.964 11.4767 126.586 11.1547L126.42 11.3488C126.731 11.6133 126.892 11.9891 126.892 12.4949H127.147ZM126.586 11.1547C126.211 10.8351 125.686 10.6844 125.03 10.6844V10.9394C125.65 10.9394 126.107 11.0819 126.42 11.3488L126.586 11.1547ZM125.03 10.6844H122.582V10.9394H125.03V10.6844ZM122.455 10.8119V14.1587H122.71V10.8119H122.455ZM125.279 19.9472C125.948 19.9472 126.485 19.7898 126.873 19.4576L126.707 19.2639C126.381 19.5437 125.91 19.6922 125.279 19.6922V19.9472ZM126.871 19.459C127.275 19.1245 127.472 18.6521 127.472 18.0602H127.217C127.217 18.5904 127.044 18.985 126.709 19.2625L126.871 19.459ZM127.472 18.0602C127.472 17.4551 127.269 16.9704 126.852 16.6236L126.689 16.8194C127.038 17.1101 127.217 17.5179 127.217 18.0602H127.472ZM126.854 16.6251C126.443 16.2684 125.894 16.0967 125.222 16.0967V16.3517C125.85 16.3517 126.334 16.5116 126.687 16.8178L126.854 16.6251ZM125.222 16.0967H122.582V16.3517H125.222V16.0967ZM122.455 16.2242V19.8197H122.71V16.2242H122.455ZM122.582 19.9472H125.279V19.6922H122.582V19.9472ZM132.232 13.8145L132.12 13.7554L132.119 13.7568L132.232 13.8145ZM133.973 11.902L133.907 11.7928L133.906 11.7933L133.973 11.902ZM138.505 11.7107L138.445 11.8228L138.446 11.8233L138.505 11.7107ZM139.94 12.9156L139.837 12.9913L140.067 13.3036V12.9156H139.94ZM139.94 11.4047V11.2772H139.812V11.4047H139.94ZM142.636 11.4047H142.764V11.2772H142.636V11.4047ZM142.636 22V22.1275H142.764V22H142.636ZM139.94 22H139.812V22.1275H139.94V22ZM139.94 20.4509H140.067V20.0427L139.835 20.3783L139.94 20.4509ZM138.505 21.694L138.565 21.8066L138.566 21.8061L138.505 21.694ZM133.973 21.4836L133.905 21.5914L133.906 21.592L133.973 21.4836ZM132.232 19.552L132.118 19.609L132.12 19.6111L132.232 19.552ZM139.557 15.0385L139.445 15.0991L139.446 15.1004L139.557 15.0385ZM138.525 13.9675L138.46 14.0774L138.462 14.0788L138.525 13.9675ZM135.751 13.9484L135.688 13.8379L135.688 13.8379L135.751 13.9484ZM134.719 15.0194L134.608 14.9564L134.607 14.9575L134.719 15.0194ZM134.719 18.3471L134.606 18.4065L134.608 18.4101L134.719 18.3471ZM135.751 19.4372L135.685 19.5463L135.687 19.5471L135.751 19.4372ZM138.525 19.4564L138.587 19.5677L138.589 19.5663L138.525 19.4564ZM139.557 18.3854L139.669 18.4473L139.67 18.446L139.557 18.3854ZM131.729 16.6641C131.729 15.6101 131.936 14.6805 132.346 13.8722L132.119 13.7568C131.688 14.606 131.474 15.5761 131.474 16.6641H131.729ZM132.345 13.8736C132.769 13.0632 133.334 12.4437 134.04 12.0107L133.906 11.7933C133.158 12.2528 132.563 12.9083 132.12 13.7554L132.345 13.8736ZM134.039 12.0112C134.757 11.5775 135.557 11.3601 136.44 11.3601V11.1051C135.513 11.1051 134.667 11.334 133.907 11.7928L134.039 12.0112ZM136.44 11.3601C137.213 11.3601 137.88 11.5159 138.445 11.8228L138.566 11.5987C137.958 11.2681 137.248 11.1051 136.44 11.1051V11.3601ZM138.446 11.8233C139.03 12.1343 139.493 12.524 139.837 12.9913L140.043 12.84C139.673 12.3383 139.179 11.9247 138.565 11.5982L138.446 11.8233ZM140.067 12.9156V11.4047H139.812V12.9156H140.067ZM139.94 11.5322H142.636V11.2772H139.94V11.5322ZM142.509 11.4047V22H142.764V11.4047H142.509ZM142.636 21.8725H139.94V22.1275H142.636V21.8725ZM140.067 22V20.4509H139.812V22H140.067ZM139.835 20.3783C139.504 20.8568 139.042 21.2585 138.445 21.5819L138.566 21.8061C139.193 21.4665 139.687 21.0395 140.045 20.5234L139.835 20.3783ZM138.446 21.5814C137.868 21.8889 137.194 22.0446 136.421 22.0446V22.2996C137.229 22.2996 137.945 22.1366 138.565 21.8066L138.446 21.5814ZM136.421 22.0446C135.551 22.0446 134.759 21.8214 134.04 21.3753L133.906 21.592C134.666 22.0638 135.505 22.2996 136.421 22.2996V22.0446ZM134.041 21.3758C133.335 20.9299 132.77 20.3036 132.345 19.4929L132.12 19.6111C132.562 20.4579 133.157 21.1194 133.905 21.5914L134.041 21.3758ZM132.347 19.495C131.936 18.6737 131.729 17.7311 131.729 16.6641H131.474C131.474 17.7647 131.688 18.7473 132.118 19.609L132.347 19.495ZM140.067 16.7024C140.067 16.0356 139.937 15.4585 139.669 14.9766L139.446 15.1004C139.688 15.5365 139.812 16.0687 139.812 16.7024H140.067ZM139.67 14.9779C139.404 14.4866 139.043 14.1112 138.587 13.8562L138.462 14.0788C138.873 14.3083 139.201 14.6469 139.445 15.0991L139.67 14.9779ZM138.589 13.8576C138.136 13.5912 137.649 13.4575 137.128 13.4575V13.7125C137.603 13.7125 138.046 13.8338 138.46 14.0774L138.589 13.8576ZM137.128 13.4575C136.609 13.4575 136.128 13.5842 135.688 13.8379L135.815 14.0589C136.216 13.828 136.653 13.7125 137.128 13.7125V13.4575ZM135.688 13.8379C135.245 14.0928 134.885 14.4673 134.608 14.9564L134.83 15.0823C135.087 14.628 135.416 14.2885 135.815 14.0589L135.688 13.8379ZM134.607 14.9575C134.34 15.4391 134.209 16.0096 134.209 16.6641H134.464C134.464 16.0437 134.588 15.5177 134.83 15.0813L134.607 14.9575ZM134.209 16.6641C134.209 17.3189 134.34 17.9009 134.606 18.4065L134.832 18.2877C134.588 17.8243 134.464 17.2843 134.464 16.6641H134.209ZM134.608 18.4101C134.885 18.8988 135.244 19.2789 135.685 19.5463L135.818 19.3282C135.417 19.0856 135.088 18.739 134.83 18.2842L134.608 18.4101ZM135.687 19.5471C136.139 19.8132 136.62 19.9472 137.128 19.9472V19.6922C136.668 19.6922 136.231 19.5713 135.816 19.3274L135.687 19.5471ZM137.128 19.9472C137.647 19.9472 138.134 19.8206 138.587 19.5677L138.462 19.3451C138.048 19.5767 137.604 19.6922 137.128 19.6922V19.9472ZM138.589 19.5663C139.043 19.2992 139.403 18.9253 139.669 18.4473L139.446 18.3235C139.201 18.7635 138.873 19.1035 138.46 19.3465L138.589 19.5663ZM139.67 18.446C139.937 17.9521 140.067 17.3693 140.067 16.7024H139.812C139.812 17.3359 139.688 17.8752 139.445 18.3247L139.67 18.446ZM145.328 13.8336L145.44 13.8948L145.44 13.8941L145.328 13.8336ZM147.183 11.9211L147.246 12.0322L147.247 12.0314L147.183 11.9211ZM153.15 12.2271L153.072 12.3279L153.074 12.3291L153.15 12.2271ZM154.891 14.9811V15.1086H155.053L155.014 14.9505L154.891 14.9811ZM152.003 14.9811L151.882 15.0214L151.911 15.1086H152.003V14.9811ZM151.219 13.9101L151.142 14.0122L151.146 14.0151L151.219 13.9101ZM148.063 14.35L148.162 14.4305L148.163 14.4294L148.063 14.35ZM148.063 19.0547L147.963 19.1341L147.964 19.1352L148.063 19.0547ZM152.003 18.4236V18.2961H151.912L151.882 18.3824L152.003 18.4236ZM154.891 18.4236L155.014 18.4552L155.055 18.2961H154.891V18.4236ZM153.15 21.1585L153.229 21.2591L153.229 21.2591L153.15 21.1585ZM147.183 21.5027L147.119 21.613L147.12 21.6138L147.183 21.5027ZM145.328 19.5902L145.216 19.6507L145.216 19.6514L145.328 19.5902ZM144.786 16.7024C144.786 15.6234 145.006 14.6889 145.44 13.8948L145.216 13.7724C144.758 14.6103 144.531 15.5883 144.531 16.7024H144.786ZM145.44 13.8941C145.876 13.0857 146.477 12.4661 147.246 12.0322L147.12 11.8101C146.308 12.2686 145.673 12.924 145.216 13.7732L145.44 13.8941ZM147.247 12.0314C148.016 11.5849 148.899 11.3601 149.899 11.3601V11.1051C148.859 11.1051 147.931 11.3393 147.119 11.8109L147.247 12.0314ZM149.899 11.3601C151.19 11.3601 152.245 11.6857 153.072 12.3278L153.228 12.1264C152.347 11.4426 151.234 11.1051 149.899 11.1051V11.3601ZM153.074 12.3291C153.914 12.9595 154.48 13.8507 154.767 15.0117L155.014 14.9505C154.715 13.7401 154.12 12.7952 153.227 12.1251L153.074 12.3291ZM154.891 14.8536H152.003V15.1086H154.891V14.8536ZM152.124 14.9408C151.963 14.4577 151.685 14.0771 151.291 13.8052L151.146 14.0151C151.491 14.2531 151.737 14.5865 151.882 15.0214L152.124 14.9408ZM151.295 13.8081C150.912 13.5207 150.437 13.381 149.88 13.381V13.636C150.393 13.636 150.811 13.764 151.142 14.0121L151.295 13.8081ZM149.88 13.381C149.079 13.381 148.435 13.6769 147.963 14.2706L148.163 14.4294C148.583 13.9011 149.151 13.636 149.88 13.636V13.381ZM147.964 14.2695C147.493 14.8487 147.266 15.6657 147.266 16.7024H147.521C147.521 15.699 147.741 14.9478 148.162 14.4305L147.964 14.2695ZM147.266 16.7024C147.266 17.727 147.493 18.543 147.963 19.1341L148.163 18.9754C147.74 18.4445 147.521 17.6923 147.521 16.7024H147.266ZM147.964 19.1352C148.437 19.7159 149.08 20.0046 149.88 20.0046V19.7496C149.15 19.7496 148.582 19.4901 148.162 18.9743L147.964 19.1352ZM149.88 20.0046C150.441 20.0046 150.915 19.8791 151.295 19.619C151.676 19.3583 151.95 18.9702 152.123 18.4649L151.882 18.3824C151.723 18.8461 151.478 19.1847 151.151 19.4085C150.824 19.6329 150.403 19.7496 149.88 19.7496V20.0046ZM152.003 18.5511H154.891V18.2961H152.003V18.5511ZM154.767 18.3921C154.48 19.5145 153.915 20.4009 153.072 21.0579L153.229 21.2591C154.12 20.5646 154.714 19.6278 155.014 18.4552L154.767 18.3921ZM153.072 21.0579C152.231 21.7132 151.176 22.0446 149.899 22.0446V22.2996C151.222 22.2996 152.335 21.9553 153.229 21.2591L153.072 21.0579ZM149.899 22.0446C148.898 22.0446 148.015 21.8259 147.246 21.3917L147.12 21.6138C147.932 22.0721 148.86 22.2996 149.899 22.2996V22.0446ZM147.247 21.3925C146.477 20.9454 145.875 20.325 145.44 19.5291L145.216 19.6514C145.673 20.4875 146.308 21.1421 147.119 21.613L147.247 21.3925ZM145.44 19.5298C145.006 18.7225 144.786 17.7813 144.786 16.7024H144.531C144.531 17.8165 144.758 18.8005 145.216 19.6507L145.44 19.5298ZM163.221 22L163.121 22.0794L163.159 22.1275H163.221V22ZM159.625 17.4865L159.725 17.4071L159.498 17.1218V17.4865H159.625ZM159.625 22V22.1275H159.753V22H159.625ZM156.948 22H156.82V22.1275H156.948V22ZM156.948 7.8475V7.72H156.82V7.8475H156.948ZM159.625 7.8475H159.753V7.72H159.625V7.8475ZM159.625 15.8991H159.498V16.2657L159.725 15.9783L159.625 15.8991ZM163.182 11.4047V11.2772H163.121L163.082 11.3256L163.182 11.4047ZM166.663 11.4047L166.759 11.4889L166.945 11.2772H166.663V11.4047ZM161.997 16.7215L161.901 16.6374L161.826 16.7221L161.901 16.8063L161.997 16.7215ZM166.701 22V22.1275H166.986L166.797 21.9152L166.701 22ZM163.32 21.9206L159.725 17.4071L159.525 17.5659L163.121 22.0794L163.32 21.9206ZM159.498 17.4865V22H159.753V17.4865H159.498ZM159.625 21.8725H156.948V22.1275H159.625V21.8725ZM157.075 22V7.8475H156.82V22H157.075ZM156.948 7.975H159.625V7.72H156.948V7.975ZM159.498 7.8475V15.8991H159.753V7.8475H159.498ZM159.725 15.9783L163.282 11.4839L163.082 11.3256L159.525 15.82L159.725 15.9783ZM163.182 11.5322H166.663V11.2772H163.182V11.5322ZM166.567 11.3206L161.901 16.6374L162.093 16.8056L166.759 11.4889L166.567 11.3206ZM161.901 16.8063L166.606 22.0848L166.797 21.9152L162.092 16.6367L161.901 16.8063ZM166.701 21.8725H163.221V22.1275H166.701V21.8725ZM171.674 8.42125L171.801 8.42547L171.805 8.29375H171.674V8.42125ZM171.368 17.6586V17.7861H171.491L171.495 17.6628L171.368 17.6586ZM169.111 17.6586L168.983 17.6631L168.988 17.7861H169.111V17.6586ZM168.786 8.42125V8.29375H168.654L168.658 8.42573L168.786 8.42125ZM169.092 21.694L169.002 21.7842L169.005 21.7878L169.092 21.694ZM169.092 19.4564L169.18 19.5484L169.18 19.5484L169.092 19.4564ZM171.463 19.4564L171.373 19.5466L171.375 19.5484L171.463 19.4564ZM171.463 21.694L171.551 21.7861L171.553 21.7842L171.463 21.694ZM171.546 8.41703L171.24 17.6544L171.495 17.6628L171.801 8.42547L171.546 8.41703ZM171.368 17.5311H169.111V17.7861H171.368V17.5311ZM169.238 17.6541L168.913 8.41676L168.658 8.42573L168.983 17.6631L169.238 17.6541ZM168.786 8.54875H171.674V8.29375H168.786V8.54875ZM170.297 22.0064C169.84 22.0064 169.47 21.8691 169.178 21.6002L169.005 21.7878C169.351 22.1054 169.784 22.2614 170.297 22.2614V22.0064ZM169.182 21.6038C168.901 21.3226 168.76 20.9792 168.76 20.5656H168.505C168.505 21.0445 168.671 21.4534 169.002 21.7842L169.182 21.6038ZM168.76 20.5656C168.76 20.1521 168.901 19.8162 169.18 19.5484L169.004 19.3643C168.671 19.683 168.505 20.0867 168.505 20.5656H168.76ZM169.18 19.5484C169.473 19.2674 169.842 19.1249 170.297 19.1249V18.8699C169.783 18.8699 169.348 19.0333 169.003 19.3644L169.18 19.5484ZM170.297 19.1249C170.738 19.1249 171.093 19.2667 171.373 19.5465L171.553 19.3662C171.221 19.034 170.799 18.8699 170.297 18.8699V19.1249ZM171.375 19.5484C171.654 19.8162 171.795 20.1521 171.795 20.5656H172.05C172.05 20.0867 171.884 19.683 171.551 19.3643L171.375 19.5484ZM171.795 20.5656C171.795 20.9792 171.654 21.3226 171.373 21.6038L171.553 21.7842C171.884 21.4534 172.05 21.0445 172.05 20.5656H171.795ZM171.375 21.6019C171.096 21.8698 170.74 22.0064 170.297 22.0064V22.2614C170.797 22.2614 171.219 22.1047 171.551 21.7861L171.375 21.6019ZM178.53 8.42125L178.658 8.42547L178.662 8.29375H178.53V8.42125ZM178.224 17.6586V17.7861H178.348L178.352 17.6628L178.224 17.6586ZM175.967 17.6586L175.84 17.6631L175.844 17.7861H175.967V17.6586ZM175.642 8.42125V8.29375H175.51L175.515 8.42573L175.642 8.42125ZM175.948 21.694L175.858 21.7842L175.862 21.7878L175.948 21.694ZM175.948 19.4564L176.037 19.5484L176.037 19.5484L175.948 19.4564ZM178.32 19.4564L178.23 19.5466L178.232 19.5484L178.32 19.4564ZM178.32 21.694L178.408 21.7861L178.41 21.7842L178.32 21.694ZM178.403 8.41703L178.097 17.6544L178.352 17.6628L178.658 8.42547L178.403 8.41703ZM178.224 17.5311H175.967V17.7861H178.224V17.5311ZM176.095 17.6541L175.77 8.41676L175.515 8.42573L175.84 17.6631L176.095 17.6541ZM175.642 8.54875H178.53V8.29375H175.642V8.54875ZM177.153 22.0064C176.697 22.0064 176.327 21.8691 176.035 21.6002L175.862 21.7878C176.207 22.1054 176.641 22.2614 177.153 22.2614V22.0064ZM176.039 21.6038C175.757 21.3226 175.617 20.9792 175.617 20.5656H175.362C175.362 21.0445 175.527 21.4534 175.858 21.7842L176.039 21.6038ZM175.617 20.5656C175.617 20.1521 175.757 19.8162 176.037 19.5484L175.86 19.3643C175.528 19.683 175.362 20.0867 175.362 20.5656H175.617ZM176.037 19.5484C176.329 19.2674 176.698 19.1249 177.153 19.1249V18.8699C176.639 18.8699 176.205 19.0333 175.86 19.3644L176.037 19.5484ZM177.153 19.1249C177.595 19.1249 177.95 19.2667 178.23 19.5465L178.41 19.3662C178.078 19.034 177.655 18.8699 177.153 18.8699V19.1249ZM178.232 19.5484C178.511 19.8162 178.651 20.1521 178.651 20.5656H178.906C178.906 20.0867 178.741 19.683 178.408 19.3643L178.232 19.5484ZM178.651 20.5656C178.651 20.9792 178.511 21.3226 178.23 21.6038L178.41 21.7842C178.741 21.4534 178.906 21.0445 178.906 20.5656H178.651ZM178.232 21.6019C177.952 21.8698 177.596 22.0064 177.153 22.0064V22.2614C177.654 22.2614 178.076 22.1047 178.408 21.7861L178.232 21.6019Z" fill="black" mask="url(#path-2-outside-1_1916_2171)"/>
<path d="M20.9939 28H183.006" stroke="#404040" stroke-width="0.5" stroke-linecap="round"/>
<rect x="44.6599" y="35.4991" width="39.5467" height="39.5467" rx="19.7734" fill="#FFF3B3"/>
<path d="M66.4262 51.1808L64.6385 49.9067L61.9893 54.1689L64.1431 56.4853L62.4846 59.1723L64.2723 60.4463L66.9215 56.1841L64.7677 53.8678L66.4262 51.1808Z" fill="#6900FF"/>
<path d="M56.9171 55.1766C56.9202 53.7114 57.2923 52.2745 57.9941 51.0187V52.8602H60.1479V47.0692H54.7633V49.3856H56.3895C55.414 50.9556 54.8535 52.7812 54.7677 54.6672C54.6819 56.5532 55.074 58.4288 55.9023 60.0938C56.7305 61.7587 57.9637 63.1505 59.4702 64.1203C60.9767 65.0902 62.6998 65.6017 64.4556 65.6003V63.2839C62.4562 63.2839 60.5388 62.4297 59.1251 60.9093C57.7114 59.3889 56.9171 57.3268 56.9171 55.1766Z" fill="#6900FF"/>
<path d="M74.1481 55.1767C74.1481 52.4121 73.1269 49.7608 71.3093 47.806C69.4916 45.8511 67.0264 44.7529 64.4558 44.7529V47.0693C65.7878 47.0712 67.0955 47.4526 68.2458 48.1747C69.3961 48.8968 70.348 49.9338 71.0046 51.1801C71.6612 52.4265 71.999 53.8376 71.9837 55.27C71.9684 56.7024 71.6004 58.1048 70.9173 59.3346V57.4931H68.7635V63.284H74.1481V60.9676H72.5219C73.5843 59.2526 74.1502 57.2374 74.1481 55.1767Z" fill="#6900FF"/>
<path d="M31.3625 88.9965V90.2976H33.4609V91.5072H31.3625V92.9183H33.7358V94.1737H29.7956V87.7411H33.7358V88.9965H31.3625ZM37.9144 89.0056C38.5131 89.0056 38.9896 89.2011 39.3439 89.5921C39.7043 89.9769 39.8845 90.5084 39.8845 91.1865V94.1737H38.3268V91.3972C38.3268 91.0551 38.2382 90.7894 38.061 90.6C37.8839 90.4107 37.6456 90.316 37.3463 90.316C37.047 90.316 36.8087 90.4107 36.6316 90.6C36.4544 90.7894 36.3658 91.0551 36.3658 91.3972V94.1737H34.7989V89.0606H36.3658V89.7387C36.5246 89.5127 36.7385 89.3355 37.0072 89.2072C37.276 89.0728 37.5784 89.0056 37.9144 89.0056ZM45.8391 91.5347C45.8391 91.6813 45.8299 91.834 45.8116 91.9928H42.2654C42.2898 92.3105 42.3906 92.5549 42.5678 92.7259C42.751 92.8908 42.974 92.9733 43.2367 92.9733C43.6277 92.9733 43.8995 92.8084 44.0522 92.4785H45.7199C45.6344 92.8145 45.4786 93.1169 45.2526 93.3857C45.0327 93.6545 44.7547 93.8652 44.4188 94.0179C44.0828 94.1707 43.7071 94.247 43.2917 94.247C42.7907 94.247 42.3448 94.1401 41.9538 93.9263C41.5629 93.7125 41.2574 93.407 41.0375 93.01C40.8176 92.6129 40.7076 92.1486 40.7076 91.6172C40.7076 91.0857 40.8145 90.6214 41.0283 90.2243C41.2483 89.8273 41.5537 89.5218 41.9447 89.308C42.3356 89.0942 42.7846 88.9873 43.2917 88.9873C43.7865 88.9873 44.2263 89.0911 44.6112 89.2988C44.996 89.5065 45.2954 89.8028 45.5092 90.1877C45.7291 90.5725 45.8391 91.0215 45.8391 91.5347ZM44.2355 91.1223C44.2355 90.8535 44.1439 90.6397 43.9606 90.4809C43.7773 90.3221 43.5482 90.2427 43.2733 90.2427C43.0107 90.2427 42.7877 90.319 42.6044 90.4717C42.4273 90.6245 42.3173 90.8413 42.2746 91.1223H44.2355ZM48.2784 89.9128C48.4617 89.6318 48.6908 89.4119 48.9657 89.253C49.2406 89.0881 49.546 89.0056 49.882 89.0056V90.6642H49.4513C49.0604 90.6642 48.7671 90.7497 48.5716 90.9207C48.3762 91.0857 48.2784 91.3789 48.2784 91.8004V94.1737H46.7115V89.0606H48.2784V89.9128ZM52.6194 88.9873C52.9798 88.9873 53.2944 89.0606 53.5632 89.2072C53.8381 89.3538 54.0488 89.5463 54.1955 89.7845V89.0606H55.7624V94.1645C55.7624 94.6349 55.6677 95.0595 55.4783 95.4382C55.2951 95.8231 55.011 96.1285 54.6261 96.3546C54.2474 96.5806 53.7739 96.6936 53.2058 96.6936C52.4483 96.6936 51.8344 96.5134 51.364 96.153C50.8936 95.7987 50.6248 95.3161 50.5576 94.7052H52.1062C52.1551 94.9007 52.2712 95.0534 52.4544 95.1633C52.6377 95.2794 52.8637 95.3374 53.1325 95.3374C53.4563 95.3374 53.7129 95.2428 53.9022 95.0534C54.0977 94.8701 54.1955 94.5738 54.1955 94.1645V93.4406C54.0427 93.6789 53.832 93.8744 53.5632 94.0271C53.2944 94.1737 52.9798 94.247 52.6194 94.247C52.1979 94.247 51.8161 94.1401 51.474 93.9263C51.1319 93.7064 50.86 93.3979 50.6584 93.0008C50.463 92.5976 50.3652 92.1334 50.3652 91.608C50.3652 91.0826 50.463 90.6214 50.6584 90.2243C50.86 89.8273 51.1319 89.5218 51.474 89.308C51.8161 89.0942 52.1979 88.9873 52.6194 88.9873ZM54.1955 91.6172C54.1955 91.2262 54.0855 90.9177 53.8656 90.6917C53.6518 90.4656 53.3891 90.3526 53.0775 90.3526C52.766 90.3526 52.5003 90.4656 52.2803 90.6917C52.0665 90.9116 51.9596 91.217 51.9596 91.608C51.9596 91.999 52.0665 92.3105 52.2803 92.5426C52.5003 92.7687 52.766 92.8817 53.0775 92.8817C53.3891 92.8817 53.6518 92.7687 53.8656 92.5426C54.0855 92.3166 54.1955 92.0081 54.1955 91.6172ZM62.1649 89.0606L58.9577 96.602H57.2717L58.4446 93.9996L56.3645 89.0606H58.1147L59.2968 92.2586L60.4696 89.0606H62.1649ZM64.4992 90.9482C64.4992 90.3129 64.6366 89.7478 64.9115 89.253C65.1864 88.7521 65.5682 88.3642 66.057 88.0893C66.5518 87.8083 67.1107 87.6678 67.7338 87.6678C68.4974 87.6678 69.1511 87.8694 69.6948 88.2726C70.2385 88.6757 70.6019 89.2255 70.7852 89.9219H69.0625C68.9342 89.6532 68.751 89.4485 68.5127 89.308C68.2806 89.1675 68.0148 89.0973 67.7155 89.0973C67.2329 89.0973 66.8419 89.2652 66.5426 89.6012C66.2433 89.9372 66.0936 90.3862 66.0936 90.9482C66.0936 91.5102 66.2433 91.9592 66.5426 92.2952C66.8419 92.6312 67.2329 92.7992 67.7155 92.7992C68.0148 92.7992 68.2806 92.729 68.5127 92.5885C68.751 92.448 68.9342 92.2433 69.0625 91.9745H70.7852C70.6019 92.6709 70.2385 93.2207 69.6948 93.6239C69.1511 94.021 68.4974 94.2195 67.7338 94.2195C67.1107 94.2195 66.5518 94.0821 66.057 93.8072C65.5682 93.5262 65.1864 93.1383 64.9115 92.6434C64.6366 92.1486 64.4992 91.5836 64.4992 90.9482ZM74.1181 94.247C73.6171 94.247 73.1651 94.1401 72.7619 93.9263C72.3648 93.7125 72.0502 93.407 71.8181 93.01C71.592 92.6129 71.479 92.1486 71.479 91.6172C71.479 91.0918 71.5951 90.6306 71.8272 90.2335C72.0594 89.8303 72.377 89.5218 72.7802 89.308C73.1834 89.0942 73.6355 88.9873 74.1364 88.9873C74.6373 88.9873 75.0894 89.0942 75.4925 89.308C75.8957 89.5218 76.2134 89.8303 76.4455 90.2335C76.6777 90.6306 76.7937 91.0918 76.7937 91.6172C76.7937 92.1425 76.6746 92.6068 76.4364 93.01C76.2042 93.407 75.8835 93.7125 75.4742 93.9263C75.071 94.1401 74.619 94.247 74.1181 94.247ZM74.1181 92.8908C74.4174 92.8908 74.6709 92.7809 74.8786 92.561C75.0924 92.3411 75.1993 92.0264 75.1993 91.6172C75.1993 91.2079 75.0955 90.8933 74.8878 90.6733C74.6862 90.4534 74.4357 90.3435 74.1364 90.3435C73.8309 90.3435 73.5774 90.4534 73.3758 90.6733C73.1742 90.8871 73.0734 91.2018 73.0734 91.6172C73.0734 92.0264 73.1712 92.3411 73.3667 92.561C73.5683 92.7809 73.8187 92.8908 74.1181 92.8908ZM80.7863 89.0056C81.385 89.0056 81.8615 89.2011 82.2158 89.5921C82.5762 89.9769 82.7564 90.5084 82.7564 91.1865V94.1737H81.1987V91.3972C81.1987 91.0551 81.1101 90.7894 80.9329 90.6C80.7558 90.4107 80.5175 90.316 80.2182 90.316C79.9189 90.316 79.6806 90.4107 79.5035 90.6C79.3263 90.7894 79.2377 91.0551 79.2377 91.3972V94.1737H77.6708V89.0606H79.2377V89.7387C79.3966 89.5127 79.6104 89.3355 79.8792 89.2072C80.148 89.0728 80.4503 89.0056 80.7863 89.0056ZM86.7409 92.845V94.1737H85.9437C85.3756 94.1737 84.9327 94.0363 84.615 93.7614C84.2973 93.4804 84.1385 93.0252 84.1385 92.396V90.3618H83.5154V89.0606H84.1385V87.8144H85.7054V89.0606H86.7317V90.3618H85.7054V92.4144C85.7054 92.5671 85.7421 92.677 85.8154 92.7442C85.8887 92.8114 86.0109 92.845 86.1819 92.845H86.7409ZM89.2264 89.9128C89.4097 89.6318 89.6388 89.4119 89.9137 89.253C90.1886 89.0881 90.494 89.0056 90.83 89.0056V90.6642H90.3993C90.0083 90.6642 89.7151 90.7497 89.5196 90.9207C89.3242 91.0857 89.2264 91.3789 89.2264 91.8004V94.1737H87.6595V89.0606H89.2264V89.9128ZM93.9522 94.247C93.4513 94.247 92.9992 94.1401 92.5961 93.9263C92.199 93.7125 91.8844 93.407 91.6522 93.01C91.4262 92.6129 91.3132 92.1486 91.3132 91.6172C91.3132 91.0918 91.4293 90.6306 91.6614 90.2335C91.8935 89.8303 92.2112 89.5218 92.6144 89.308C93.0176 89.0942 93.4696 88.9873 93.9706 88.9873C94.4715 88.9873 94.9235 89.0942 95.3267 89.308C95.7299 89.5218 96.0476 89.8303 96.2797 90.2335C96.5118 90.6306 96.6279 91.0918 96.6279 91.6172C96.6279 92.1425 96.5088 92.6068 96.2705 93.01C96.0384 93.407 95.7177 93.7125 95.3084 93.9263C94.9052 94.1401 94.4532 94.247 93.9522 94.247ZM93.9522 92.8908C94.2516 92.8908 94.5051 92.7809 94.7128 92.561C94.9266 92.3411 95.0335 92.0264 95.0335 91.6172C95.0335 91.2079 94.9296 90.8933 94.7219 90.6733C94.5203 90.4534 94.2699 90.3435 93.9706 90.3435C93.6651 90.3435 93.4116 90.4534 93.21 90.6733C93.0084 90.8871 92.9076 91.2018 92.9076 91.6172C92.9076 92.0264 93.0054 92.3411 93.2008 92.561C93.4024 92.7809 93.6529 92.8908 93.9522 92.8908ZM99.0719 87.3929V94.1737H97.505V87.3929H99.0719Z" fill="#404040"/>
<rect x="257.793" y="35.4991" width="39.5467" height="39.5467" rx="19.7734" fill="#FFF3B3"/>
<g clip-path="url(#clip0_1916_2171)">
<path d="M279.34 57.0659V58.0806C279.34 58.772 278.78 59.3326 278.088 59.3326H273.962C273.962 59.3326 274.006 60.1066 275.731 60.1066C277.456 60.1066 279.601 60.1066 279.601 60.1066C279.601 60.1066 280.488 59.6988 280.564 59.0451C280.64 58.3914 280.575 56.8009 280.575 56.8009L279.34 57.0659Z" fill="#DEFFFE"/>
<path d="M277.297 49.3943C278.424 49.3943 279.341 50.3111 279.341 51.438V56.5889V57.0659H280.647V51.5051C280.647 51.5051 280.474 49.6837 279.446 49.3943C278.418 49.105 277.297 49.2045 277.297 49.2045V49.3943H277.297Z" fill="#DEFFFE"/>
<path d="M278.323 61.7762H276.105V62.4279H278.323V61.7762Z" fill="#DEFFFE"/>
<path d="M277.214 63.2799C277.097 63.2799 277.002 63.185 277.002 63.0679C277.002 62.9509 277.097 62.856 277.214 62.856C277.594 62.856 277.949 62.6513 278.14 62.3216C278.199 62.2204 278.328 62.1857 278.43 62.2444C278.531 62.303 278.566 62.4326 278.507 62.5339C278.241 62.994 277.745 63.2799 277.214 63.2799Z" fill="#A58BFF"/>
<path d="M277.214 63.2799C276.683 63.2799 276.188 62.994 275.921 62.5339C275.863 62.4326 275.897 62.303 275.999 62.2443C276.1 62.1857 276.23 62.2204 276.288 62.3216C276.479 62.6512 276.834 62.856 277.214 62.856C277.331 62.856 277.426 62.9509 277.426 63.0679C277.426 63.1849 277.331 63.2799 277.214 63.2799Z" fill="#A58BFF"/>
<path d="M279.048 61.9991H275.38C273.55 61.9991 272.062 60.5102 272.062 58.6802V57.7445C272.062 57.4407 272.309 57.1935 272.613 57.1935H273.212C273.329 57.1935 273.423 57.2884 273.423 57.4054C273.423 57.5224 273.329 57.6173 273.212 57.6173H272.613C272.542 57.6173 272.485 57.6744 272.485 57.7445V58.6802C272.485 60.2765 273.784 61.5752 275.38 61.5752H279.048C280.644 61.5752 281.943 60.2765 281.943 58.6802V57.7445C281.943 57.6744 281.886 57.6173 281.815 57.6173H281.216C281.099 57.6173 281.005 57.5224 281.005 57.4054C281.005 57.2884 281.099 57.1935 281.216 57.1935H281.815C282.119 57.1935 282.366 57.4407 282.366 57.7445V58.6802C282.367 60.5102 280.878 61.9991 279.048 61.9991Z" fill="#6900FF"/>
<path d="M275.405 52.4302H273.854C273.737 52.4302 273.642 52.3353 273.642 52.2183C273.642 52.1013 273.737 52.0064 273.854 52.0064H275.405C275.681 52.0064 275.906 51.7816 275.906 51.5052C275.906 51.2288 275.681 51.0039 275.405 51.0039H273.948C273.831 51.0039 273.736 50.909 273.736 50.792C273.736 50.675 273.831 50.5801 273.948 50.5801H275.405C275.915 50.5801 276.33 50.9951 276.33 51.5052C276.33 52.0153 275.915 52.4302 275.405 52.4302Z" fill="#A58BFF"/>
<path d="M280.575 52.4302H279.024C278.514 52.4302 278.099 52.0153 278.099 51.5052C278.099 50.9951 278.514 50.5801 279.024 50.5801H280.481C280.598 50.5801 280.692 50.675 280.692 50.792C280.692 50.909 280.598 51.0039 280.481 51.0039H279.024C278.748 51.0039 278.523 51.2288 278.523 51.5052C278.523 51.7816 278.748 52.0064 279.024 52.0064H280.575C280.692 52.0064 280.787 52.1013 280.787 52.2183C280.787 52.3353 280.692 52.4302 280.575 52.4302Z" fill="#A58BFF"/>
<path d="M280.575 55.3981H279.024C278.514 55.3981 278.099 54.9832 278.099 54.4731C278.099 53.963 278.514 53.548 279.024 53.548H280.575C280.692 53.548 280.787 53.6429 280.787 53.7599C280.787 53.8769 280.692 53.9718 280.575 53.9718H279.024C278.748 53.9718 278.523 54.1967 278.523 54.4731C278.523 54.7494 278.748 54.9743 279.024 54.9743H280.575C280.692 54.9743 280.787 55.0692 280.787 55.1862C280.787 55.3032 280.692 55.3981 280.575 55.3981Z" fill="#A58BFF"/>
<path d="M275.405 55.3981H273.854C273.737 55.3981 273.642 55.3032 273.642 55.1862C273.642 55.0692 273.737 54.9743 273.854 54.9743H275.405C275.681 54.9743 275.906 54.7494 275.906 54.4731C275.906 54.1967 275.681 53.9718 275.405 53.9718H273.854C273.737 53.9718 273.642 53.8769 273.642 53.7599C273.642 53.6429 273.737 53.548 273.854 53.548H275.405C275.915 53.548 276.33 53.963 276.33 54.4731C276.33 54.9832 275.915 55.3981 275.405 55.3981Z" fill="#A58BFF"/>
<path d="M279.219 60.3737H275.21C274.345 60.3737 273.642 59.6702 273.642 58.8055V58.1795C273.642 58.0624 273.737 57.9675 273.854 57.9675C273.971 57.9675 274.066 58.0624 274.066 58.1795V58.8055C274.066 59.4365 274.579 59.9499 275.21 59.9499H279.219C279.85 59.9499 280.363 59.4365 280.363 58.8055V58.1795C280.363 58.0624 280.458 57.9675 280.575 57.9675C280.692 57.9675 280.787 58.0624 280.787 58.1795V58.8055C280.787 59.6702 280.083 60.3737 279.219 60.3737Z" fill="#6900FF"/>
<path d="M280.575 56.8009C280.458 56.8009 280.363 56.706 280.363 56.589V51.438C280.363 50.3111 279.446 49.3943 278.319 49.3943H276.109C274.982 49.3943 274.066 50.3111 274.066 51.438V56.5889C274.066 56.7059 273.971 56.8008 273.854 56.8008C273.737 56.8008 273.642 56.7059 273.642 56.5889V51.438C273.642 50.0774 274.749 48.9705 276.109 48.9705H278.319C279.68 48.9705 280.787 50.0774 280.787 51.438V56.5889C280.787 56.706 280.692 56.8009 280.575 56.8009Z" fill="#6900FF"/>
<path d="M287.217 50.6614H282.744C282.253 50.6614 281.854 51.0606 281.854 51.5515V54.3793C281.854 54.6136 281.945 54.8346 282.106 55.0001V55.423C282.106 55.5739 282.19 55.7093 282.325 55.7764C282.382 55.8044 282.442 55.8181 282.502 55.8181C282.586 55.8181 282.669 55.7909 282.739 55.7377L283.358 55.2694H287.217C287.708 55.2694 288.107 54.8702 288.107 54.3793V51.5515C288.107 51.0606 287.708 50.6614 287.217 50.6614Z" fill="#6900FF"/>
<path d="M281.217 56.4194H273.212C273.095 56.4194 273 56.5143 273 56.6314V58.1795C273 58.2965 273.095 58.3914 273.212 58.3914H281.217C281.334 58.3914 281.429 58.2965 281.429 58.1795V56.6314C281.429 56.5143 281.334 56.4194 281.217 56.4194Z" fill="#FFD700"/>
<path d="M280.352 65.9318H274.076C273.959 65.9318 273.864 65.8369 273.864 65.7198C273.864 64.8689 275.304 64.2272 277.214 64.2272C279.124 64.2272 280.564 64.8689 280.564 65.7198C280.564 65.8369 280.469 65.9318 280.352 65.9318Z" fill="#6900FF"/>
<path d="M277.214 63.9653C277.097 63.9653 277.002 63.8704 277.002 63.7534V63.0679C277.002 62.9509 277.097 62.856 277.214 62.856C277.331 62.856 277.426 62.9509 277.426 63.0679V63.7534C277.426 63.8704 277.331 63.9653 277.214 63.9653Z" fill="#A58BFF"/>
<path d="M286.32 52.4302H283.509C283.392 52.4302 283.297 52.3353 283.297 52.2183C283.297 52.1012 283.392 52.0063 283.509 52.0063H286.32C286.437 52.0063 286.532 52.1012 286.532 52.2183C286.532 52.3353 286.437 52.4302 286.32 52.4302Z" fill="#FFD700"/>
<path d="M286.321 53.7672H285.773C285.656 53.7672 285.561 53.6723 285.561 53.5553C285.561 53.4383 285.656 53.3434 285.773 53.3434H286.321C286.438 53.3434 286.532 53.4383 286.532 53.5553C286.532 53.6723 286.438 53.7672 286.321 53.7672Z" fill="#FFD700"/>
<path d="M284.554 53.7672H283.509C283.392 53.7672 283.297 53.6723 283.297 53.5553C283.297 53.4383 283.392 53.3434 283.509 53.3434H284.554C284.671 53.3434 284.766 53.4383 284.766 53.5553C284.766 53.6723 284.671 53.7672 284.554 53.7672Z" fill="#FFD700"/>
<path d="M271.17 49.3084C271.101 48.9527 270.787 48.6946 270.425 48.6946H269.567C269.205 48.6946 268.892 48.9527 268.822 49.3084L268.732 49.7709C268.731 49.7739 268.731 49.7768 268.73 49.7798L268.681 49.9831H271.301L271.26 49.7699L271.17 49.3084Z" fill="#6900FF"/>
<path d="M272.193 44.6547H267.72C267.229 44.6547 266.83 45.0539 266.83 45.5447V49.0931C266.83 49.5839 267.229 49.9832 267.72 49.9832H268.246L268.317 49.6855L268.406 49.2273C268.514 48.6731 269.003 48.2708 269.567 48.2708H270.425C270.99 48.2708 271.478 48.6731 271.586 49.2273L271.676 49.6899L271.758 50.1186L272.197 50.4515C272.268 50.5047 272.351 50.5319 272.435 50.5319C272.495 50.5319 272.555 50.5181 272.611 50.4902C272.746 50.4231 272.83 50.2876 272.83 50.1368V49.7138C272.992 49.5483 273.083 49.3273 273.083 49.093V45.5447C273.083 45.0539 272.684 44.6547 272.193 44.6547Z" fill="#6900FF"/>
<path d="M270.024 48.6946H269.969C269.324 48.6946 268.799 48.1699 268.799 47.5248V47.0405C268.799 46.3955 269.324 45.8707 269.969 45.8707H270.024C270.669 45.8707 271.194 46.3955 271.194 47.0405V47.5248C271.194 48.1699 270.669 48.6946 270.024 48.6946Z" fill="#FFD700"/>
</g>
<path d="M241.437 87.7411L239.155 94.1737H237.195L234.913 87.7411H236.581L238.175 92.5976L239.779 87.7411H241.437ZM244.465 94.247C243.964 94.247 243.512 94.1401 243.109 93.9263C242.712 93.7125 242.397 93.407 242.165 93.01C241.939 92.6129 241.826 92.1486 241.826 91.6172C241.826 91.0918 241.942 90.6306 242.174 90.2335C242.407 89.8303 242.724 89.5218 243.127 89.308C243.531 89.0942 243.983 88.9873 244.484 88.9873C244.985 88.9873 245.437 89.0942 245.84 89.308C246.243 89.5218 246.561 89.8303 246.793 90.2335C247.025 90.6306 247.141 91.0918 247.141 91.6172C247.141 92.1425 247.022 92.6068 246.784 93.01C246.551 93.407 246.231 93.7125 245.821 93.9263C245.418 94.1401 244.966 94.247 244.465 94.247ZM244.465 92.8908C244.765 92.8908 245.018 92.7809 245.226 92.561C245.44 92.3411 245.547 92.0264 245.547 91.6172C245.547 91.2079 245.443 90.8933 245.235 90.6733C245.033 90.4534 244.783 90.3435 244.484 90.3435C244.178 90.3435 243.925 90.4534 243.723 90.6733C243.521 90.8871 243.421 91.2018 243.421 91.6172C243.421 92.0264 243.518 92.3411 243.714 92.561C243.915 92.7809 244.166 92.8908 244.465 92.8908ZM247.706 91.6172C247.706 91.0857 247.813 90.6214 248.027 90.2243C248.247 89.8273 248.55 89.5218 248.934 89.308C249.325 89.0942 249.771 88.9873 250.272 88.9873C250.914 88.9873 251.448 89.1553 251.876 89.4913C252.31 89.8273 252.594 90.3007 252.728 90.9116H251.06C250.92 90.5206 250.648 90.3251 250.245 90.3251C249.958 90.3251 249.729 90.4381 249.557 90.6642C249.386 90.8841 249.301 91.2018 249.301 91.6172C249.301 92.0326 249.386 92.3533 249.557 92.5793C249.729 92.7992 249.958 92.9092 250.245 92.9092C250.648 92.9092 250.92 92.7137 251.06 92.3227H252.728C252.594 92.9214 252.31 93.3918 251.876 93.7339C251.442 94.076 250.908 94.247 250.272 94.247C249.771 94.247 249.325 94.1401 248.934 93.9263C248.55 93.7125 248.247 93.407 248.027 93.01C247.813 92.6129 247.706 92.1486 247.706 91.6172ZM253.3 91.608C253.3 91.0826 253.398 90.6214 253.594 90.2243C253.795 89.8273 254.067 89.5218 254.409 89.308C254.751 89.0942 255.133 88.9873 255.555 88.9873C255.915 88.9873 256.23 89.0606 256.498 89.2072C256.773 89.3538 256.984 89.5463 257.131 89.7845V89.0606H258.698V94.1737H257.131V93.4498C256.978 93.6881 256.764 93.8805 256.489 94.0271C256.22 94.1737 255.906 94.247 255.545 94.247C255.13 94.247 254.751 94.1401 254.409 93.9263C254.067 93.7064 253.795 93.3979 253.594 93.0008C253.398 92.5976 253.3 92.1334 253.3 91.608ZM257.131 91.6172C257.131 91.2262 257.021 90.9177 256.801 90.6917C256.587 90.4656 256.324 90.3526 256.013 90.3526C255.701 90.3526 255.435 90.4656 255.216 90.6917C255.002 90.9116 254.895 91.217 254.895 91.608C254.895 91.999 255.002 92.3105 255.216 92.5426C255.435 92.7687 255.701 92.8817 256.013 92.8817C256.324 92.8817 256.587 92.7687 256.801 92.5426C257.021 92.3166 257.131 92.0081 257.131 91.6172ZM261.444 87.3929V94.1737H259.877V87.3929H261.444ZM264.347 90.9482C264.347 90.3129 264.485 89.7478 264.759 89.253C265.034 88.7521 265.416 88.3642 265.905 88.0893C266.4 87.8083 266.959 87.6678 267.582 87.6678C268.345 87.6678 268.999 87.8694 269.543 88.2726C270.086 88.6757 270.45 89.2255 270.633 89.9219H268.91C268.782 89.6532 268.599 89.4485 268.361 89.308C268.129 89.1675 267.863 89.0973 267.563 89.0973C267.081 89.0973 266.69 89.2652 266.391 89.6012C266.091 89.9372 265.942 90.3862 265.942 90.9482C265.942 91.5102 266.091 91.9592 266.391 92.2952C266.69 92.6312 267.081 92.7992 267.563 92.7992C267.863 92.7992 268.129 92.729 268.361 92.5885C268.599 92.448 268.782 92.2433 268.91 91.9745H270.633C270.45 92.6709 270.086 93.2207 269.543 93.6239C268.999 94.021 268.345 94.2195 267.582 94.2195C266.959 94.2195 266.4 94.0821 265.905 93.8072C265.416 93.5262 265.034 93.1383 264.759 92.6434C264.485 92.1486 264.347 91.5836 264.347 90.9482ZM273.966 94.247C273.465 94.247 273.013 94.1401 272.61 93.9263C272.213 93.7125 271.898 93.407 271.666 93.01C271.44 92.6129 271.327 92.1486 271.327 91.6172C271.327 91.0918 271.443 90.6306 271.675 90.2335C271.907 89.8303 272.225 89.5218 272.628 89.308C273.031 89.0942 273.483 88.9873 273.984 88.9873C274.485 88.9873 274.937 89.0942 275.34 89.308C275.744 89.5218 276.061 89.8303 276.293 90.2335C276.526 90.6306 276.642 91.0918 276.642 91.6172C276.642 92.1425 276.523 92.6068 276.284 93.01C276.052 93.407 275.731 93.7125 275.322 93.9263C274.919 94.1401 274.467 94.247 273.966 94.247ZM273.966 92.8908C274.265 92.8908 274.519 92.7809 274.727 92.561C274.94 92.3411 275.047 92.0264 275.047 91.6172C275.047 91.2079 274.943 90.8933 274.736 90.6733C274.534 90.4534 274.284 90.3435 273.984 90.3435C273.679 90.3435 273.425 90.4534 273.224 90.6733C273.022 90.8871 272.921 91.2018 272.921 91.6172C272.921 92.0264 273.019 92.3411 273.215 92.561C273.416 92.7809 273.667 92.8908 273.966 92.8908ZM284.043 89.0056C284.678 89.0056 285.182 89.1981 285.555 89.5829C285.934 89.9678 286.123 90.5023 286.123 91.1865V94.1737H284.565V91.3972C284.565 91.0674 284.477 90.8138 284.3 90.6367C284.129 90.4534 283.89 90.3618 283.585 90.3618C283.279 90.3618 283.038 90.4534 282.861 90.6367C282.69 90.8138 282.604 91.0674 282.604 91.3972V94.1737H281.047V91.3972C281.047 91.0674 280.958 90.8138 280.781 90.6367C280.61 90.4534 280.372 90.3618 280.066 90.3618C279.761 90.3618 279.519 90.4534 279.342 90.6367C279.171 90.8138 279.086 91.0674 279.086 91.3972V94.1737H277.519V89.0606H279.086V89.702C279.245 89.4882 279.452 89.3202 279.709 89.1981C279.965 89.0698 280.256 89.0056 280.579 89.0056C280.964 89.0056 281.306 89.0881 281.606 89.253C281.911 89.418 282.149 89.6532 282.32 89.9586C282.497 89.6776 282.739 89.4485 283.044 89.2714C283.35 89.0942 283.683 89.0056 284.043 89.0056ZM293.789 89.0056C294.424 89.0056 294.928 89.1981 295.301 89.5829C295.68 89.9678 295.869 90.5023 295.869 91.1865V94.1737H294.311V91.3972C294.311 91.0674 294.223 90.8138 294.046 90.6367C293.875 90.4534 293.636 90.3618 293.331 90.3618C293.025 90.3618 292.784 90.4534 292.607 90.6367C292.436 90.8138 292.35 91.0674 292.35 91.3972V94.1737H290.793V91.3972C290.793 91.0674 290.704 90.8138 290.527 90.6367C290.356 90.4534 290.118 90.3618 289.812 90.3618C289.507 90.3618 289.265 90.4534 289.088 90.6367C288.917 90.8138 288.832 91.0674 288.832 91.3972V94.1737H287.265V89.0606H288.832V89.702C288.99 89.4882 289.198 89.3202 289.455 89.1981C289.711 89.0698 290.002 89.0056 290.325 89.0056C290.71 89.0056 291.052 89.0881 291.352 89.253C291.657 89.418 291.895 89.6532 292.066 89.9586C292.243 89.6776 292.485 89.4485 292.79 89.2714C293.096 89.0942 293.429 89.0056 293.789 89.0056ZM296.699 91.608C296.699 91.0826 296.797 90.6214 296.992 90.2243C297.194 89.8273 297.466 89.5218 297.808 89.308C298.15 89.0942 298.532 88.9873 298.953 88.9873C299.314 88.9873 299.628 89.0606 299.897 89.2072C300.172 89.3538 300.383 89.5463 300.529 89.7845V89.0606H302.096V94.1737H300.529V93.4498C300.377 93.6881 300.163 93.8805 299.888 94.0271C299.619 94.1737 299.305 94.247 298.944 94.247C298.529 94.247 298.15 94.1401 297.808 93.9263C297.466 93.7064 297.194 93.3979 296.992 93.0008C296.797 92.5976 296.699 92.1334 296.699 91.608ZM300.529 91.6172C300.529 91.2262 300.419 90.9177 300.2 90.6917C299.986 90.4656 299.723 90.3526 299.412 90.3526C299.1 90.3526 298.834 90.4656 298.614 90.6917C298.4 90.9116 298.294 91.217 298.294 91.608C298.294 91.999 298.4 92.3105 298.614 92.5426C298.834 92.7687 299.1 92.8817 299.412 92.8817C299.723 92.8817 299.986 92.7687 300.2 92.5426C300.419 92.3166 300.529 92.0081 300.529 91.6172ZM306.391 89.0056C306.99 89.0056 307.466 89.2011 307.821 89.5921C308.181 89.9769 308.361 90.5084 308.361 91.1865V94.1737H306.804V91.3972C306.804 91.0551 306.715 90.7894 306.538 90.6C306.361 90.4107 306.122 90.316 305.823 90.316C305.524 90.316 305.286 90.4107 305.108 90.6C304.931 90.7894 304.843 91.0551 304.843 91.3972V94.1737H303.276V89.0606H304.843V89.7387C305.002 89.5127 305.215 89.3355 305.484 89.2072C305.753 89.0728 306.055 89.0056 306.391 89.0056ZM309.184 91.608C309.184 91.0826 309.282 90.6214 309.478 90.2243C309.679 89.8273 309.951 89.5218 310.293 89.308C310.635 89.0942 311.017 88.9873 311.439 88.9873C311.775 88.9873 312.08 89.0575 312.355 89.1981C312.636 89.3386 312.856 89.5279 313.015 89.7662V87.3929H314.582V94.1737H313.015V93.4406C312.868 93.685 312.657 93.8805 312.382 94.0271C312.114 94.1737 311.799 94.247 311.439 94.247C311.017 94.247 310.635 94.1401 310.293 93.9263C309.951 93.7064 309.679 93.3979 309.478 93.0008C309.282 92.5976 309.184 92.1334 309.184 91.608ZM313.015 91.6172C313.015 91.2262 312.905 90.9177 312.685 90.6917C312.471 90.4656 312.208 90.3526 311.897 90.3526C311.585 90.3526 311.32 90.4656 311.1 90.6917C310.886 90.9116 310.779 91.217 310.779 91.608C310.779 91.999 310.886 92.3105 311.1 92.5426C311.32 92.7687 311.585 92.8817 311.897 92.8817C312.208 92.8817 312.471 92.7687 312.685 92.5426C312.905 92.3166 313.015 92.0081 313.015 91.6172ZM317.841 94.247C317.395 94.247 316.998 94.1707 316.65 94.0179C316.302 93.8652 316.027 93.6575 315.825 93.3948C315.624 93.126 315.511 92.8267 315.486 92.4968H317.035C317.053 92.674 317.136 92.8175 317.282 92.9275C317.429 93.0375 317.609 93.0924 317.823 93.0924C318.018 93.0924 318.168 93.0558 318.272 92.9825C318.382 92.9031 318.437 92.8023 318.437 92.6801C318.437 92.5335 318.36 92.4266 318.208 92.3594C318.055 92.2861 317.808 92.2067 317.465 92.1211C317.099 92.0356 316.793 91.947 316.549 91.8554C316.305 91.7577 316.094 91.608 315.917 91.4064C315.74 91.1987 315.651 90.9207 315.651 90.5725C315.651 90.2793 315.731 90.0136 315.889 89.7753C316.054 89.531 316.293 89.3386 316.604 89.1981C316.922 89.0575 317.297 88.9873 317.731 88.9873C318.373 88.9873 318.877 89.1461 319.243 89.4638C319.616 89.7814 319.83 90.203 319.885 90.7283H318.437C318.412 90.5512 318.333 90.4107 318.199 90.3068C318.07 90.203 317.899 90.151 317.685 90.151C317.502 90.151 317.362 90.1877 317.264 90.261C317.166 90.3282 317.117 90.4229 317.117 90.5451C317.117 90.6917 317.194 90.8016 317.346 90.8749C317.505 90.9482 317.75 91.0215 318.079 91.0948C318.458 91.1926 318.767 91.2903 319.005 91.3881C319.243 91.4797 319.451 91.6324 319.628 91.8462C319.811 92.0539 319.906 92.3349 319.912 92.6893C319.912 92.9886 319.827 93.2574 319.655 93.4956C319.491 93.7278 319.249 93.911 318.932 94.0454C318.62 94.1798 318.257 94.247 317.841 94.247Z" fill="#404040"/>
<rect x="151.372" y="35.4991" width="39.5468" height="39.5468" rx="19.7734" fill="#FFF3B3"/>
<g clip-path="url(#clip1_1916_2171)">
<path d="M168.512 62.2793V60.6903" stroke="#434A54" stroke-width="0.696928" stroke-linecap="round" stroke-linejoin="round"/>
<path d="M175.785 58.7354C175.482 58.9651 175.235 59.2602 175.062 59.5986C174.888 59.9371 174.794 60.3102 174.785 60.6902" stroke="#434A54" stroke-width="0.696928" stroke-linecap="round" stroke-linejoin="round"/>
<path d="M172.694 63.485V64.3701C172.694 64.5549 172.62 64.7322 172.49 64.8629C172.359 64.9936 172.182 65.067 171.997 65.067H171.3C171.115 65.067 170.938 64.9936 170.807 64.8629C170.676 64.7322 170.603 64.5549 170.603 64.3701V63.485C170.815 63.6078 171.055 63.6727 171.3 63.6732H171.997C172.242 63.6727 172.482 63.6078 172.694 63.485Z" fill="#ECF0F1" stroke="#434A54" stroke-width="0.696928" stroke-linecap="round" stroke-linejoin="round"/>
<path d="M173.391 60.8854V62.2792C173.391 62.6489 173.244 63.0034 172.983 63.2648C172.721 63.5262 172.367 63.6731 171.997 63.6731H171.3C170.931 63.6731 170.576 63.5262 170.315 63.2648C170.053 63.0034 169.906 62.6489 169.906 62.2792V60.8854H173.391Z" fill="#ECF0F1" stroke="#434A54" stroke-width="0.696928" stroke-linecap="round" stroke-linejoin="round"/>
<path d="M176.876 53.505C176.885 54.2993 176.713 55.0852 176.373 55.8032C176.033 56.5211 175.534 57.1521 174.914 57.6482C174.448 58.0082 174.069 58.4686 173.805 58.9953C173.541 59.522 173.4 60.1014 173.391 60.6903V60.8855H169.906V60.6903C169.913 60.1206 169.788 59.5571 169.541 59.0434C169.295 58.5298 168.933 58.0798 168.485 57.7284C167.779 57.1915 167.221 56.4839 166.864 55.6721C166.507 54.8603 166.363 53.9711 166.444 53.088C166.526 52.205 166.83 51.3572 167.33 50.6244C167.829 49.8916 168.507 49.2979 169.299 48.8992C170.091 48.5005 170.972 48.3099 171.858 48.3454C172.744 48.3808 173.606 48.6411 174.364 49.1017C175.122 49.5623 175.75 50.2082 176.189 50.9785C176.629 51.7488 176.865 52.6183 176.876 53.505Z" fill="#FFD700" stroke="#434A54" stroke-width="0.696928" stroke-linecap="round" stroke-linejoin="round"/>
<path d="M170.951 60.8854V56.7039" stroke="#434A54" stroke-width="0.696928" stroke-linecap="round" stroke-linejoin="round"/>
<path d="M172.346 60.8854V56.7039" stroke="#434A54" stroke-width="0.696928" stroke-linecap="round" stroke-linejoin="round"/>
<path d="M170.951 56.7038L168.861 54.613" stroke="#434A54" stroke-width="0.696928" stroke-linecap="round" stroke-linejoin="round"/>
<path d="M172.346 56.7038L174.436 54.613" stroke="#434A54" stroke-width="0.696928" stroke-linecap="round" stroke-linejoin="round"/>
<path d="M169.558 49.9471C170.193 49.5789 170.914 49.3854 171.649 49.3861" stroke="#434A54" stroke-width="0.696928" stroke-linecap="round" stroke-linejoin="round"/>
<path d="M167.467 53.5678C167.467 52.6299 167.783 51.7192 168.363 50.9822" stroke="#434A54" stroke-width="0.696928" stroke-linecap="round" stroke-linejoin="round"/>
<path d="M171.648 47.2952V45.9014" stroke="#434A54" stroke-width="0.696928" stroke-linecap="round" stroke-linejoin="round"/>
<path d="M167.213 49.1317L166.227 48.1455" stroke="#434A54" stroke-width="0.696928" stroke-linecap="round" stroke-linejoin="round"/>
<path d="M165.376 53.5677H163.982" stroke="#434A54" stroke-width="0.696928" stroke-linecap="round" stroke-linejoin="round"/>
<path d="M177.921 53.5677H179.315" stroke="#434A54" stroke-width="0.696928" stroke-linecap="round" stroke-linejoin="round"/>
<path d="M176.084 49.1317L177.07 48.1455" stroke="#434A54" stroke-width="0.696928" stroke-linecap="round" stroke-linejoin="round"/>
<path d="M169.906 61.9308H173.391" stroke="#434A54" stroke-width="0.696928" stroke-linecap="round" stroke-linejoin="round"/>
</g>
<path d="M134.268 90.9482C134.268 90.3129 134.405 89.7478 134.68 89.253C134.955 88.7521 135.337 88.3642 135.826 88.0893C136.32 87.8083 136.879 87.6678 137.502 87.6678C138.266 87.6678 138.92 87.8694 139.463 88.2726C140.007 88.6757 140.371 89.2255 140.554 89.9219H138.831C138.703 89.6532 138.52 89.4485 138.281 89.308C138.049 89.1675 137.784 89.0973 137.484 89.0973C137.002 89.0973 136.611 89.2652 136.311 89.6012C136.012 89.9372 135.862 90.3862 135.862 90.9482C135.862 91.5102 136.012 91.9592 136.311 92.2952C136.611 92.6312 137.002 92.7992 137.484 92.7992C137.784 92.7992 138.049 92.729 138.281 92.5885C138.52 92.448 138.703 92.2433 138.831 91.9745H140.554C140.371 92.6709 140.007 93.2207 139.463 93.6239C138.92 94.021 138.266 94.2195 137.502 94.2195C136.879 94.2195 136.32 94.0821 135.826 93.8072C135.337 93.5262 134.955 93.1383 134.68 92.6434C134.405 92.1486 134.268 91.5836 134.268 90.9482ZM143.887 94.247C143.386 94.247 142.934 94.1401 142.531 93.9263C142.133 93.7125 141.819 93.407 141.587 93.01C141.361 92.6129 141.248 92.1486 141.248 91.6172C141.248 91.0918 141.364 90.6306 141.596 90.2335C141.828 89.8303 142.146 89.5218 142.549 89.308C142.952 89.0942 143.404 88.9873 143.905 88.9873C144.406 88.9873 144.858 89.0942 145.261 89.308C145.664 89.5218 145.982 89.8303 146.214 90.2335C146.446 90.6306 146.562 91.0918 146.562 91.6172C146.562 92.1425 146.443 92.6068 146.205 93.01C145.973 93.407 145.652 93.7125 145.243 93.9263C144.84 94.1401 144.388 94.247 143.887 94.247ZM143.887 92.8908C144.186 92.8908 144.44 92.7809 144.647 92.561C144.861 92.3411 144.968 92.0264 144.968 91.6172C144.968 91.2079 144.864 90.8933 144.656 90.6733C144.455 90.4534 144.204 90.3435 143.905 90.3435C143.6 90.3435 143.346 90.4534 143.144 90.6733C142.943 90.8871 142.842 91.2018 142.842 91.6172C142.842 92.0264 142.94 92.3411 143.135 92.561C143.337 92.7809 143.587 92.8908 143.887 92.8908ZM150.555 89.0056C151.154 89.0056 151.63 89.2011 151.984 89.5921C152.345 89.9769 152.525 90.5084 152.525 91.1865V94.1737H150.967V91.3972C150.967 91.0551 150.879 90.7894 150.702 90.6C150.524 90.4107 150.286 90.316 149.987 90.316C149.688 90.316 149.449 90.4107 149.272 90.6C149.095 90.7894 149.006 91.0551 149.006 91.3972V94.1737H147.439V89.0606H149.006V89.7387C149.165 89.5127 149.379 89.3355 149.648 89.2072C149.917 89.0728 150.219 89.0056 150.555 89.0056ZM156.51 92.845V94.1737H155.712C155.144 94.1737 154.701 94.0363 154.384 93.7614C154.066 93.4804 153.907 93.0252 153.907 92.396V90.3618H153.284V89.0606H153.907V87.8144H155.474V89.0606H156.5V90.3618H155.474V92.4144C155.474 92.5671 155.511 92.677 155.584 92.7442C155.657 92.8114 155.78 92.845 155.951 92.845H156.51ZM158.995 89.9128C159.178 89.6318 159.407 89.4119 159.682 89.253C159.957 89.0881 160.263 89.0056 160.599 89.0056V90.6642H160.168C159.777 90.6642 159.484 90.7497 159.288 90.9207C159.093 91.0857 158.995 91.3789 158.995 91.8004V94.1737H157.428V89.0606H158.995V89.9128ZM163.721 94.247C163.22 94.247 162.768 94.1401 162.365 93.9263C161.968 93.7125 161.653 93.407 161.421 93.01C161.195 92.6129 161.082 92.1486 161.082 91.6172C161.082 91.0918 161.198 90.6306 161.43 90.2335C161.662 89.8303 161.98 89.5218 162.383 89.308C162.786 89.0942 163.238 88.9873 163.739 88.9873C164.24 88.9873 164.692 89.0942 165.095 89.308C165.499 89.5218 165.816 89.8303 166.048 90.2335C166.281 90.6306 166.397 91.0918 166.397 91.6172C166.397 92.1425 166.277 92.6068 166.039 93.01C165.807 93.407 165.486 93.7125 165.077 93.9263C164.674 94.1401 164.222 94.247 163.721 94.247ZM163.721 92.8908C164.02 92.8908 164.274 92.7809 164.481 92.561C164.695 92.3411 164.802 92.0264 164.802 91.6172C164.802 91.2079 164.698 90.8933 164.491 90.6733C164.289 90.4534 164.039 90.3435 163.739 90.3435C163.434 90.3435 163.18 90.4534 162.979 90.6733C162.777 90.8871 162.676 91.2018 162.676 91.6172C162.676 92.0264 162.774 92.3411 162.97 92.561C163.171 92.7809 163.422 92.8908 163.721 92.8908ZM168.841 87.3929V94.1737H167.274V87.3929H168.841ZM171.698 91.608C171.698 91.0826 171.796 90.6214 171.991 90.2243C172.193 89.8273 172.465 89.5218 172.807 89.308C173.149 89.0942 173.531 88.9873 173.952 88.9873C174.288 88.9873 174.594 89.0575 174.869 89.1981C175.15 89.3386 175.369 89.5279 175.528 89.7662V87.3929H177.095V94.1737H175.528V93.4406C175.382 93.685 175.171 93.8805 174.896 94.0271C174.627 94.1737 174.313 94.247 173.952 94.247C173.531 94.247 173.149 94.1401 172.807 93.9263C172.465 93.7064 172.193 93.3979 171.991 93.0008C171.796 92.5976 171.698 92.1334 171.698 91.608ZM175.528 91.6172C175.528 91.2262 175.418 90.9177 175.198 90.6917C174.985 90.4656 174.722 90.3526 174.41 90.3526C174.099 90.3526 173.833 90.4656 173.613 90.6917C173.399 90.9116 173.292 91.217 173.292 91.608C173.292 91.999 173.399 92.3105 173.613 92.5426C173.833 92.7687 174.099 92.8817 174.41 92.8817C174.722 92.8817 174.985 92.7687 175.198 92.5426C175.418 92.3166 175.528 92.0081 175.528 91.6172ZM183.094 91.5347C183.094 91.6813 183.085 91.834 183.067 91.9928H179.521C179.545 92.3105 179.646 92.5549 179.823 92.7259C180.006 92.8908 180.229 92.9733 180.492 92.9733C180.883 92.9733 181.155 92.8084 181.308 92.4785H182.975C182.89 92.8145 182.734 93.1169 182.508 93.3857C182.288 93.6545 182.01 93.8652 181.674 94.0179C181.338 94.1707 180.962 94.247 180.547 94.247C180.046 94.247 179.6 94.1401 179.209 93.9263C178.818 93.7125 178.513 93.407 178.293 93.01C178.073 92.6129 177.963 92.1486 177.963 91.6172C177.963 91.0857 178.07 90.6214 178.284 90.2243C178.504 89.8273 178.809 89.5218 179.2 89.308C179.591 89.0942 180.04 88.9873 180.547 88.9873C181.042 88.9873 181.482 89.0911 181.867 89.2988C182.251 89.5065 182.551 89.8028 182.765 90.1877C182.985 90.5725 183.094 91.0215 183.094 91.5347ZM181.491 91.1223C181.491 90.8535 181.399 90.6397 181.216 90.4809C181.033 90.3221 180.804 90.2427 180.529 90.2427C180.266 90.2427 180.043 90.319 179.86 90.4717C179.683 90.6245 179.573 90.8413 179.53 91.1223H181.491ZM186.267 92.7076L187.376 89.0606H189.043L187.229 94.1737H185.296L183.481 89.0606H185.158L186.267 92.7076ZM190.537 88.5291C190.262 88.5291 190.036 88.4497 189.859 88.2909C189.688 88.1259 189.602 87.9244 189.602 87.6861C189.602 87.4418 189.688 87.2402 189.859 87.0813C190.036 86.9164 190.262 86.8339 190.537 86.8339C190.806 86.8339 191.025 86.9164 191.197 87.0813C191.374 87.2402 191.462 87.4418 191.462 87.6861C191.462 87.9244 191.374 88.1259 191.197 88.2909C191.025 88.4497 190.806 88.5291 190.537 88.5291ZM191.316 89.0606V94.1737H189.749V89.0606H191.316ZM192.185 91.6172C192.185 91.0857 192.292 90.6214 192.506 90.2243C192.726 89.8273 193.028 89.5218 193.413 89.308C193.804 89.0942 194.25 88.9873 194.751 88.9873C195.393 88.9873 195.927 89.1553 196.355 89.4913C196.788 89.8273 197.073 90.3007 197.207 90.9116H195.539C195.399 90.5206 195.127 90.3251 194.724 90.3251C194.437 90.3251 194.207 90.4381 194.036 90.6642C193.865 90.8841 193.78 91.2018 193.78 91.6172C193.78 92.0326 193.865 92.3533 194.036 92.5793C194.207 92.7992 194.437 92.9092 194.724 92.9092C195.127 92.9092 195.399 92.7137 195.539 92.3227H197.207C197.073 92.9214 196.788 93.3918 196.355 93.7339C195.921 94.076 195.386 94.247 194.751 94.247C194.25 94.247 193.804 94.1401 193.413 93.9263C193.028 93.7125 192.726 93.407 192.506 93.01C192.292 92.6129 192.185 92.1486 192.185 91.6172ZM202.911 91.5347C202.911 91.6813 202.902 91.834 202.883 91.9928H199.337C199.362 92.3105 199.462 92.5549 199.639 92.7259C199.823 92.8908 200.046 92.9733 200.308 92.9733C200.699 92.9733 200.971 92.8084 201.124 92.4785H202.792C202.706 92.8145 202.55 93.1169 202.324 93.3857C202.104 93.6545 201.826 93.8652 201.49 94.0179C201.154 94.1707 200.779 94.247 200.363 94.247C199.862 94.247 199.417 94.1401 199.026 93.9263C198.635 93.7125 198.329 93.407 198.109 93.01C197.889 92.6129 197.779 92.1486 197.779 91.6172C197.779 91.0857 197.886 90.6214 198.1 90.2243C198.32 89.8273 198.625 89.5218 199.016 89.308C199.407 89.0942 199.856 88.9873 200.363 88.9873C200.858 88.9873 201.298 89.0911 201.683 89.2988C202.068 89.5065 202.367 89.8028 202.581 90.1877C202.801 90.5725 202.911 91.0215 202.911 91.5347ZM201.307 91.1223C201.307 90.8535 201.216 90.6397 201.032 90.4809C200.849 90.3221 200.62 90.2427 200.345 90.2427C200.082 90.2427 199.859 90.319 199.676 90.4717C199.499 90.6245 199.389 90.8413 199.346 91.1223H201.307ZM205.863 94.247C205.417 94.247 205.02 94.1707 204.672 94.0179C204.324 93.8652 204.049 93.6575 203.847 93.3948C203.646 93.126 203.533 92.8267 203.508 92.4968H205.057C205.075 92.674 205.158 92.8175 205.304 92.9275C205.451 93.0375 205.631 93.0924 205.845 93.0924C206.04 93.0924 206.19 93.0558 206.294 92.9825C206.404 92.9031 206.459 92.8023 206.459 92.6801C206.459 92.5335 206.383 92.4266 206.23 92.3594C206.077 92.2861 205.83 92.2067 205.488 92.1211C205.121 92.0356 204.816 91.947 204.571 91.8554C204.327 91.7577 204.116 91.608 203.939 91.4064C203.762 91.1987 203.673 90.9207 203.673 90.5725C203.673 90.2793 203.753 90.0136 203.911 89.7753C204.076 89.531 204.315 89.3386 204.626 89.1981C204.944 89.0575 205.32 88.9873 205.753 88.9873C206.395 88.9873 206.899 89.1461 207.265 89.4638C207.638 89.7814 207.852 90.203 207.907 90.7283H206.459C206.434 90.5512 206.355 90.4107 206.221 90.3068C206.092 90.203 205.921 90.151 205.707 90.151C205.524 90.151 205.384 90.1877 205.286 90.261C205.188 90.3282 205.139 90.4229 205.139 90.5451C205.139 90.6917 205.216 90.8016 205.368 90.8749C205.527 90.9482 205.772 91.0215 206.102 91.0948C206.48 91.1926 206.789 91.2903 207.027 91.3881C207.265 91.4797 207.473 91.6324 207.65 91.8462C207.833 92.0539 207.928 92.3349 207.934 92.6893C207.934 92.9886 207.849 93.2574 207.678 93.4956C207.513 93.7278 207.271 93.911 206.954 94.0454C206.642 94.1798 206.279 94.247 205.863 94.247Z" fill="#404040"/>
</g>
<defs>
<filter id="filter0_d_1916_2171" x="0" y="0" width="348" height="119.146" filterUnits="userSpaceOnUse" color-interpolation-filters="sRGB">
<feFlood flood-opacity="0" result="BackgroundImageFix"/>
<feColorMatrix in="SourceAlpha" type="matrix" values="0 0 0 0 0 0 0 0 0 0 0 0 0 0 0 0 0 0 127 0" result="hardAlpha"/>
<feOffset dy="2"/>
<feGaussianBlur stdDeviation="1.5"/>
<feComposite in2="hardAlpha" operator="out"/>
<feColorMatrix type="matrix" values="0 0 0 0 0 0 0 0 0 0 0 0 0 0 0 0 0 0 0.44 0"/>
<feBlend mode="normal" in2="BackgroundImageFix" result="effect1_dropShadow_1916_2171"/>
<feBlend mode="normal" in="SourceGraphic" in2="effect1_dropShadow_1916_2171" result="shape"/>
</filter>
<clipPath id="clip0_1916_2171">
<rect width="21.7009" height="21.7009" fill="white" transform="translate(266.552 44.4427)"/>
</clipPath>
<clipPath id="clip1_1916_2171">
<rect width="22.3017" height="22.3017" fill="white" transform="translate(160.498 44.5076)"/>
</clipPath>
</defs>
</svg>
